<?xml version="1.0" encoding="UTF-8"?>
<svg version="1.1" xmlns="http://www.w3.org/2000/svg" width="687" height="594">
<path d="M0 0 C226.71 0 453.42 0 687 0 C687 196.02 687 392.04 687 594 C460.29 594 233.58 594 0 594 C0 397.98 0 201.96 0 0 Z " fill="#1A1A1D" transform="translate(0,0)"/>
<path d="M0 0 C1.13050781 0.53753906 2.26101563 1.07507813 3.42578125 1.62890625 C24.24440286 11.76045908 46.44795351 26.80994188 61 45 C63.170221 47.23050492 65.35368547 49.42298726 67.67578125 51.49609375 C84.21513045 66.87118234 101.56795258 94.35043133 103.23828125 117.26953125 C103.39053299 124.53754872 103.25042338 129.96998759 99 136 C98.401875 136.886875 97.80375 137.77375 97.1875 138.6875 C89.6712043 146.63329832 79.87104806 150.08243656 69 150.5 C62.27347432 150.2419719 56.24020747 148.43540291 50 146 C48.85337891 145.59587891 48.85337891 145.59587891 47.68359375 145.18359375 C40.5738015 141.85827017 38.12602848 133.97530645 35.04296875 127.2421875 C27.77056237 111.60787566 18.84657304 98.5966354 7 86 C6.46246094 85.39800781 5.92492187 84.79601562 5.37109375 84.17578125 C-13.36861044 64.02707674 -45.57084133 49.45916212 -73.015625 48.09375 C-74.33046875 48.0628125 -75.6453125 48.031875 -77 48 C-77.92103516 47.97421875 -78.84207031 47.9484375 -79.79101562 47.921875 C-118.93795652 46.94503306 -155.09439035 57.72675078 -184.4375 84.625 C-186.30520968 86.40254438 -188.15978363 88.19400797 -190 90 C-190.47614746 90.46245117 -190.95229492 90.92490234 -191.44287109 91.40136719 C-197.14855066 96.83724978 -197.14855066 96.83724978 -202 103 C-204.81117911 103.28621686 -207.40115429 103.37819403 -210.21337891 103.34057617 C-211.0622316 103.34101425 -211.91108429 103.34145233 -212.78565979 103.34190369 C-215.59952568 103.33980882 -218.41280033 103.31644515 -221.2265625 103.29296875 C-223.17426223 103.28737527 -225.12196618 103.283104 -227.06967163 103.28010559 C-232.20230715 103.26863727 -237.334689 103.23915304 -242.46722412 103.20599365 C-247.70207284 103.17533553 -252.93696244 103.16160937 -258.171875 103.14648438 C-268.44802827 103.11428521 -278.72399306 103.06306492 -289 103 C-287.72198085 100.43718576 -286.44323142 97.87474029 -285.1640625 95.3125 C-284.80449463 94.59126953 -284.44492676 93.87003906 -284.07446289 93.12695312 C-279.94587331 84.86033719 -275.68768852 77.3004002 -270 70 C-268.95699979 68.58431485 -267.91531551 67.16765917 -266.875 65.75 C-264.76476285 62.92349437 -262.4945219 60.4945219 -260 58 C-259.525625 57.195625 -259.05125 56.39125 -258.5625 55.5625 C-255.55440946 50.62923151 -251.04984879 47.15503349 -246.68359375 43.46484375 C-245.25635351 42.2230454 -243.90023649 40.90023649 -242.5625 39.5625 C-239.19303586 36.19303586 -235.6145421 33.1022448 -232 30 C-231.44828125 29.52046875 -230.8965625 29.0409375 -230.328125 28.546875 C-228.15532845 26.68767795 -226.02850012 25.01680776 -223.5625 23.5625 C-221.35355768 22.21558395 -219.76323065 20.91875186 -217.875 19.1875 C-214.23783535 16.0040032 -210.32761004 13.85019291 -206.0546875 11.62109375 C-202.82588766 9.90760023 -199.70483114 8.05441438 -196.5625 6.1875 C-136.86203968 -28.23214975 -61.7796797 -29.92379604 0 0 Z " fill="#F9FCF8" transform="translate(493,60)"/>
<path d="M0 0 C5.88623115 5.38527531 9.76009228 13.62747986 11.25 21.375 C12.22050335 46.25517687 -7.29465307 68.75290793 -22.75 86.375 C-23.54664063 87.29539062 -24.34328125 88.21578125 -25.1640625 89.1640625 C-29.07916001 93.61731774 -33.06859242 97.7572026 -37.61865234 101.56298828 C-39.73614913 103.36322438 -41.78138367 105.22579853 -43.83203125 107.1015625 C-68.32551659 128.88632124 -98.3283777 143.32143362 -129.625 152.25 C-130.58575439 152.52432861 -131.54650879 152.79865723 -132.53637695 153.08129883 C-148.2340745 157.345149 -163.09709646 158.89455301 -179.3125 158.75 C-180.69288956 158.74351944 -180.69288956 158.74351944 -182.10116577 158.73690796 C-196.47741375 158.65790646 -210.5976712 158.10445445 -224.75 155.375 C-225.62205078 155.20871094 -226.49410156 155.04242187 -227.39257812 154.87109375 C-247.4513354 150.88591019 -266.8123489 144.19580922 -284.75 134.375 C-286.26950655 133.55984978 -287.78903884 132.74474756 -289.30859375 131.9296875 C-303.43790615 124.28041574 -316.302895 115.5100031 -328.75 105.375 C-329.59594727 104.68784912 -329.59594727 104.68784912 -330.45898438 103.98681641 C-350.57767891 87.55421254 -372.69395042 64.86141141 -380.75 39.375 C-380.42 38.715 -380.09 38.055 -379.75 37.375 C-368.88422862 37.25913669 -358.01860426 37.17030001 -347.15234089 37.11593914 C-342.10662831 37.08984814 -337.06133844 37.05445899 -332.01586914 36.99780273 C-327.14642878 36.94346548 -322.27739493 36.91357572 -317.40767479 36.90061378 C-315.55008736 36.89137699 -313.69252212 36.8733394 -311.8351078 36.84634972 C-309.23243816 36.81003586 -306.63144678 36.80505551 -304.02856445 36.80737305 C-302.87733597 36.78040848 -302.87733597 36.78040848 -301.70285034 36.75289917 C-297.68712582 36.79157484 -295.97456167 37.18869989 -292.8412323 39.78816223 C-292.15112564 40.6418187 -291.46101898 41.49547516 -290.75 42.375 C-290.17636719 43.02082031 -289.60273438 43.66664063 -289.01171875 44.33203125 C-288.49222656 44.94433594 -287.97273438 45.55664062 -287.4375 46.1875 C-280.85380305 53.73604909 -274.17509295 59.91783752 -265.75 65.375 C-264.76 66.0246875 -263.77 66.674375 -262.75 67.34375 C-230.65743267 87.79489585 -190.47208695 95.34493488 -153.04370117 87.3503418 C-129.88279948 81.71382883 -109.7508111 71.89764449 -91.75 56.375 C-90.93660156 55.69050781 -90.12320312 55.00601563 -89.28515625 54.30078125 C-87.4039212 52.6939682 -85.56971763 51.05083298 -83.75 49.375 C-83.19570313 48.88515625 -82.64140625 48.3953125 -82.0703125 47.890625 C-73.9326528 40.31547634 -68.02910094 30.50761304 -62.22631836 21.11474609 C-54.55758195 8.70703962 -46.77979189 -3.78760633 -31.75 -7.625 C-19.75436466 -10.2122939 -9.65375065 -7.3038245 0 0 Z " fill="#44D6EA" transform="translate(585.75,371.625)"/>
<path d="M0 0 C4.36179259 -0.00187641 8.72357639 -0.00943515 13.08536375 -0.01613522 C22.58022103 -0.02960418 32.07507402 -0.0357226 41.56993926 -0.04014587 C47.50515252 -0.04292267 53.44036419 -0.04716201 59.37557638 -0.05165005 C75.83570888 -0.06381797 92.29584013 -0.07412844 108.75597703 -0.07752514 C110.32970923 -0.07785449 110.32970923 -0.07785449 111.93523399 -0.07819049 C112.98671159 -0.07840877 114.0381892 -0.07862705 115.12152976 -0.07885194 C117.25181349 -0.07929539 119.38209723 -0.07974195 121.51238096 -0.08019161 C123.09738007 -0.08052376 123.09738007 -0.08052376 124.71439936 -0.08086261 C141.88277353 -0.08482116 159.05110554 -0.10231833 176.21946339 -0.12555113 C193.88000232 -0.14925626 211.54052004 -0.16172627 229.20107514 -0.16289306 C239.10387149 -0.16380924 249.00661256 -0.16954913 258.90939367 -0.18771267 C267.32763459 -0.20310088 275.74580307 -0.20824092 284.16405538 -0.19997457 C288.45678691 -0.19606622 292.74937242 -0.19700743 297.04208601 -0.21103191 C300.97266724 -0.22375643 304.9029925 -0.2225863 308.8335733 -0.2104412 C310.25367318 -0.20848195 311.67379111 -0.2115732 313.09386561 -0.22028556 C329.2428533 -0.31307751 329.2428533 -0.31307751 335.6556915 5.02723026 C336.19451963 5.68980839 336.73334775 6.35238651 337.288504 7.03504276 C337.84280088 7.69246464 338.39709775 8.34988651 338.9681915 9.02723026 C342.89714551 14.82509212 343.02059251 20.35477649 342.413504 27.16004276 C340.40058404 34.38287321 336.01982865 37.9438651 329.85656393 41.73134708 C325.47829978 43.5481052 321.99422787 43.5077788 317.31282651 43.37854862 C316.40234198 43.36592708 315.49185744 43.35330553 314.55378246 43.34030151 C311.5066004 43.29460211 308.46028401 43.22714365 305.413504 43.16004276 C303.24336616 43.12373587 301.07320236 43.08895342 298.9030174 43.05558109 C294.17478091 42.98036776 289.44678275 42.89703753 284.71879613 42.80748844 C252.09165294 42.19270587 219.4759362 42.03393689 186.84262971 42.08826667 C179.72864052 42.09976662 172.61465082 42.10397343 165.50065403 42.10781133 C152.76652168 42.11476564 140.03239604 42.12547174 127.29826963 42.13953495 C126.17200641 42.14077667 126.17200641 42.14077667 125.02299039 42.14204347 C119.69482815 42.14794309 114.36666607 42.15398226 109.038504 42.16004276 C102.92685048 42.16698602 96.81519687 42.17385029 90.70354307 42.18055058 C89.57239365 42.18179277 89.57239365 42.18179277 88.41839273 42.18306005 C75.69226041 42.19690563 62.96612793 42.20657371 50.23999 42.21346092 C43.1735897 42.21745995 36.10720403 42.22353288 29.0408119 42.23520756 C3.54009597 42.27658143 -21.96270675 42.30478049 -47.46087921 41.89231014 C-49.50199966 41.8604701 -51.54319353 41.83296676 -53.58443677 41.81032848 C-83.02827171 41.46405034 -83.02827171 41.46405034 -93.586496 32.16004276 C-97.1061082 28.20047903 -98.38768492 24.60287881 -98.74665225 19.40223026 C-98.47562136 15.6077978 -97.05462765 13.00617656 -94.586496 10.16004276 C-89.05172154 5.70815896 -83.37572736 4.06736005 -76.39508975 3.34363651 C-75.20077334 3.21924198 -74.00645693 3.09484745 -72.77594912 2.96668339 C-71.53780459 2.84486698 -70.29966006 2.72305058 -69.023996 2.59754276 C-67.84385928 2.47185917 -66.66372256 2.34617558 -65.44782412 2.21668339 C-43.673917 0.00807146 -21.86073402 0.00406003 0 0 Z " fill="#FE8000" transform="translate(218.58649599552155,264.83995723724365)"/>
<path d="M0 0 C4.81898116 4.85365009 7.92545263 9.10548074 8.5 16.0625 C8.32644483 22.9699958 5.01785771 29.94320219 0.18359375 34.83984375 C-4.30085257 38.18138582 -8.16339393 39.12473555 -13.61733627 39.12584114 C-14.5454999 39.12844889 -15.47366354 39.13105664 -16.42995334 39.13374341 C-17.44627125 39.13151268 -18.46258916 39.12928196 -19.50970459 39.12698364 C-20.59214172 39.12854363 -21.67457884 39.13010362 -22.78981709 39.13171089 C-26.42987875 39.13571071 -30.06989895 39.13253503 -33.70996094 39.12939453 C-36.31509933 39.13074912 -38.92023753 39.13252937 -41.52537537 39.13470459 C-47.87760811 39.13915639 -54.22982906 39.13818791 -60.58206227 39.13529195 C-65.75107198 39.13303323 -70.92007838 39.13272744 -76.08908844 39.13381577 C-76.82494836 39.133969 -77.56080829 39.13412223 -78.318967 39.13428011 C-79.81402816 39.13459985 -81.30908933 39.13492406 -82.80415049 39.1352527 C-96.83532458 39.13810638 -110.86649215 39.13482347 -124.89766517 39.12945233 C-136.9111095 39.12499555 -148.92454414 39.12575112 -160.93798828 39.13037109 C-174.90048261 39.13573812 -188.86297118 39.13781996 -202.82546639 39.13475883 C-204.31868505 39.1344403 -205.81190371 39.13412593 -207.30512238 39.13381577 C-208.03970847 39.13366149 -208.77429457 39.13350721 -209.53114085 39.13334826 C-214.68185156 39.13248865 -219.8325586 39.13393421 -224.98326874 39.13629532 C-231.94027429 39.13941431 -238.89726143 39.13715234 -245.85426521 39.13140106 C-248.39861331 39.13008629 -250.94296294 39.13044561 -253.48731041 39.13266373 C-306.11844106 39.17428989 -306.11844106 39.17428989 -317.91015625 28.2265625 C-322.05740798 23.57928751 -323.49369546 19.65252299 -323.40234375 13.41015625 C-322.52806884 8.17299487 -319.0581984 4.61686931 -314.99609375 1.42578125 C-309.20708243 -2.40792834 -304.27399515 -3.11325795 -297.35165405 -3.20631409 C-296.6960913 -3.21631001 -296.04052855 -3.22630592 -295.36510026 -3.23660475 C-293.17491514 -3.26863548 -290.98471122 -3.29375963 -288.79443359 -3.31860352 C-287.2212653 -3.33953592 -285.64810073 -3.36074967 -284.07493973 -3.38222313 C-279.79079868 -3.43894637 -275.50660317 -3.48859885 -271.22235155 -3.53616023 C-268.51037484 -3.56655264 -265.79842143 -3.59857556 -263.08646774 -3.63095284 C-235.4660467 -3.95709243 -207.84872856 -4.07055043 -180.2265625 -4.02734375 C-179.35024768 -4.02605736 -178.47393286 -4.02477098 -177.57106304 -4.02344561 C-161.52364591 -3.99957055 -145.47626203 -3.96201336 -129.42890394 -3.91250378 C-120.41568475 -3.88472823 -111.40249487 -3.863118 -102.38923776 -3.85249335 C-98.18681288 -3.84717009 -93.98447935 -3.83829335 -89.78209305 -3.81910515 C-70.52149161 -3.73273058 -51.39858052 -4.17212243 -32.1758889 -5.43496209 C-8.50139516 -6.99003602 -8.50139516 -6.99003602 0 0 Z " fill="#01FBFE" transform="translate(442,196)"/>
<path d="M0 0 C1.53258874 -0.00975989 3.06517769 -0.01948722 4.59776688 -0.02917671 C5.2834816 -0.03779435 5.96919633 -0.04641198 6.67569029 -0.05529076 C15.32450502 -0.09624862 21.07419666 2.13258802 27.33424759 8.09275627 C31.8047197 13.1283445 33.74081027 18.0625663 33.38112259 24.81541252 C32.41716312 31.598831 29.47319212 37.68220151 24.06471634 42.04197502 C19.63421926 43.83742221 16.12835045 44.23443602 11.372715 44.02073479 C10.72077679 43.99583158 10.06883858 43.97092838 9.39714468 43.94527054 C7.96863771 43.89069651 6.54029372 43.83172046 5.11212623 43.76888657 C1.06888814 43.59490837 -2.97575858 43.46648884 -7.02070236 43.3393383 C-8.33118198 43.29791474 -8.33118198 43.29791474 -9.66813594 43.25565434 C-20.32451958 42.94053431 -30.98036814 42.93711511 -41.64060593 42.94431877 C-42.6883635 42.94471846 -43.73612108 42.94511814 -44.81562889 42.94552994 C-51.46989257 42.94917409 -58.12412775 42.96050999 -64.77837873 42.97351265 C-70.70436965 42.98368535 -76.63036436 42.98703963 -82.55636215 42.99094963 C-97.53684475 43.00191816 -112.51731151 43.02149841 -127.49778366 43.04197502 C-143.74238148 43.06411618 -159.98697312 43.08462681 -176.23158306 43.09539318 C-183.23945387 43.10032813 -190.24729488 43.11011203 -197.25515378 43.12382317 C-201.62199734 43.13134599 -205.988837 43.13461051 -210.35568619 43.13678932 C-212.35859735 43.13864105 -214.3615079 43.14220032 -216.36441231 43.14772224 C-234.06419977 43.1949386 -251.57245909 42.65776193 -269.12278366 40.22947502 C-270.9683989 40.00034416 -270.9683989 40.00034416 -272.85129929 39.7665844 C-280.75563645 38.68968763 -287.60514636 37.54738271 -293.31028366 31.54197502 C-297.067189 25.76212065 -298.18452385 20.94617273 -296.93528366 14.04197502 C-293.92967129 8.74101027 -289.65605075 5.15617155 -283.93528366 3.04197502 C-279.06590294 1.75367149 -274.16319648 1.82206289 -269.15980148 1.73669243 C-267.69110284 1.70676722 -267.69110284 1.70676722 -266.19273353 1.67623746 C-262.94374403 1.61202408 -259.69467924 1.55520111 -256.44553757 1.49925041 C-255.31609765 1.47849957 -254.18665774 1.45774872 -253.02299237 1.43636906 C-228.11431815 0.98009382 -203.20610893 0.82765121 -178.29384184 0.73865199 C-172.23352463 0.71614362 -166.17322741 0.68907524 -160.11292648 0.66259575 C-149.9905703 0.61895658 -139.86820651 0.57805462 -129.74583054 0.53928947 C-115.51409611 0.48478625 -101.28238535 0.42535436 -87.05067515 0.36489379 C-67.91801981 0.28382979 -48.78535693 0.20430793 -29.65267372 0.13008308 C-27.61182296 0.1221312 -25.57097261 0.1140724 -23.53012276 0.10589218 C-18.98695975 0.08774019 -14.44381094 0.07118488 -9.90062714 0.05924606 C-6.60025477 0.05015463 -3.3002517 0.02933723 0 0 Z " fill="#01FAFE" transform="translate(415.9352836608887,335.9580249786377)"/>
<path d="M0 0 C1.31162109 -0.00257813 2.62324219 -0.00515625 3.97460938 -0.0078125 C4.65048096 -0.00362305 5.32635254 0.00056641 6.02270508 0.00488281 C8.08769989 0.01561386 10.15182842 0.00494785 12.21679688 -0.0078125 C14.18229492 -0.00394531 14.18229492 -0.00394531 16.1875 0 C17.37996338 0.00225586 18.57242676 0.00451172 19.80102539 0.00683594 C23.02404563 0.26536045 25.20219652 0.70626787 28.02734375 2.265625 C30.86715821 8.15561055 31.55944529 14.27167497 32.33984375 20.703125 C32.44063232 21.50878906 32.5414209 22.31445312 32.64526367 23.14453125 C32.86168444 25.17737907 32.95415452 27.2225999 33.02734375 29.265625 C27.90930263 34.38366612 16.41119019 32.48832596 9.58984375 32.515625 C7.66301758 32.5465625 7.66301758 32.5465625 5.69726562 32.578125 C-9.00789353 32.63873359 -9.00789353 32.63873359 -15.25 27.328125 C-15.79785156 26.6475 -16.34570312 25.966875 -16.91015625 25.265625 C-17.47605469 24.585 -18.04195312 23.904375 -18.625 23.203125 C-21.3071047 19.3471136 -21.28791697 15.83690537 -20.97265625 11.265625 C-18.75470292 6.2460464 -15.31728542 3.20674503 -10.24047852 1.16894531 C-6.6870293 0.18666947 -3.68302955 0.00696084 0 0 Z " fill="#02FDFD" transform="translate(55.97265625,338.734375)"/>
<path d="M0 0 C0.86222168 0.03077637 1.72444336 0.06155273 2.61279297 0.09326172 C8.49764281 0.36386825 14.64396298 0.70077114 20.25 2.625 C22.3125 5.5 22.3125 5.5 23.25 8.625 C23.43046875 9.223125 23.6109375 9.82125 23.796875 10.4375 C24.37660023 13.23617353 24.41995228 15.89323171 24.4375 18.75 C24.45167969 19.80445313 24.46585938 20.85890625 24.48046875 21.9453125 C24.25 24.625 24.25 24.625 22.25 26.625 C16.70839525 28.64785572 10.2337979 27.88924769 4.3984375 27.92016602 C2.8934587 27.93164083 1.38851915 27.95202103 -0.11621094 27.98168945 C-10.39499331 28.18405439 -19.56164824 28.05671713 -27.75 21.0625 C-31.53536944 16.449081 -32.1846677 13.89402879 -32.07421875 8.07421875 C-31.61745505 4.6237267 -30.32620244 2.9067793 -27.75 0.625 C-19.41998771 -2.15167076 -8.73289223 -0.35824864 0 0 Z " fill="#FBE504" transform="translate(65.75,272.375)"/>
<path d="M0 0 C0.75861328 -0.03287109 1.51722656 -0.06574219 2.29882812 -0.09960938 C4.51171875 -0.12109375 4.51171875 -0.12109375 8.3125 0.4375 C15.06323247 8.38113299 13.52804454 20.67812228 13.3125 30.4375 C3.48346152 33.59187692 -7.16258674 34.15867958 -16.6640625 29.62890625 C-21.06275543 27.03894227 -23.61653584 24.40630616 -25.1875 19.5625 C-26.05066482 15.06050309 -25.15507732 12.35659339 -22.6875 8.4375 C-15.94497465 1.9913494 -9.13627896 0.07094608 0 0 Z " fill="#04F3F8" transform="translate(78.6875,196.5625)"/>
<path d="M0 0 C22.80936195 -0.07010976 45.61870611 -0.12299785 68.42815399 -0.15543652 C79.01919661 -0.1708993 89.61017225 -0.19197763 100.20117188 -0.22631836 C109.43327902 -0.25623866 118.66533765 -0.27557928 127.89749193 -0.28226548 C132.7849481 -0.28617327 137.67226548 -0.29534496 142.55967712 -0.31719017 C147.16266447 -0.33759684 151.76545621 -0.34382534 156.3684845 -0.33932304 C158.05509505 -0.34014637 159.74171234 -0.34608709 161.42828369 -0.35761642 C179.82448312 -0.4771726 179.82448312 -0.4771726 186.2421875 4.8671875 C186.78101563 5.52976562 187.31984375 6.19234375 187.875 6.875 C188.42929687 7.53242188 188.98359375 8.18984375 189.5546875 8.8671875 C193.48364151 14.66504936 193.6070885 20.19473373 193 27 C190.98705179 34.22293181 186.60658681 37.78177314 180.44503784 41.57142639 C176.05774157 43.39073171 172.5584131 43.34641935 167.86767578 43.21655273 C166.95551867 43.20382796 166.04336155 43.19110319 165.10356331 43.17799282 C163.1139436 43.14818937 161.12442111 43.111238 159.13504791 43.06800461 C155.96346202 42.99920743 152.7920571 42.94905978 149.62005615 42.90359497 C143.73839997 42.81629353 137.85715471 42.71205425 131.97583389 42.60473442 C107.52904127 42.16391582 83.08286982 41.8641336 58.6328125 41.68359375 C57.90144923 41.67818085 57.17008596 41.67276795 56.41656017 41.66719103 C47.56210635 41.60202639 38.70762469 41.54135057 29.85312629 41.48259127 C22.20020604 41.43168547 14.54731079 41.37737731 6.89441514 41.32291877 C-8.7370332 41.21175364 -24.36850512 41.10443073 -40 41 C-40 40.67 -40 40.34 -40 40 C1.5232382 39.09198938 43.04566256 38.88759136 84.57747984 38.87716937 C89.38401279 38.87587954 94.19053959 38.8721182 98.99707031 38.86743164 C105.56774671 38.86127431 112.13840444 38.86136189 118.70908356 38.86568069 C121.16509234 38.86667745 123.62110233 38.8660899 126.07711029 38.86384201 C129.46907342 38.86129145 132.86097137 38.86509665 136.25292969 38.87060547 C137.24472229 38.86857872 138.23651489 38.86655197 139.25836182 38.86446381 C144.27391219 38.87981088 149.04048443 39.14956913 154 40 C161.30908741 41.02583683 168.63706607 41.51396363 176 42 C176 41.34 176 40.68 176 40 C176.969375 39.731875 177.93875 39.46375 178.9375 39.1875 C180.4534375 38.5996875 180.4534375 38.5996875 182 38 C182.33 37.01 182.66 36.02 183 35 C183.845625 34.62875 184.69125 34.2575 185.5625 33.875 C188.21846214 32.28674371 188.21846214 32.28674371 188.29296875 29.84375 C188.26461708 28.21481779 188.19382545 26.58600285 188.078125 24.9609375 C188.03945313 23.99027344 188.03945313 23.99027344 188 23 C188.33 22.67 188.66 22.34 189 22 C189.79567634 17.8679081 189.77300176 14.37397049 187.68359375 10.66015625 C184.69852156 6.96721459 182.85867461 5.22522613 178.1875 4 C177.135625 4 176.08375 4 175 4 C174.34 4 173.68 4 173 4 C173 3.34 173 2.68 173 2 C170.525 2.99 170.525 2.99 168 4 C168 3.34 168 2.68 168 2 C167.22120987 2.16233124 166.44241974 2.32466248 165.64002991 2.49191284 C160.9900779 3.1409682 156.44852006 3.13936052 151.75952148 3.12939453 C150.74255188 3.13114685 149.72558228 3.13289917 148.67779541 3.13470459 C145.32554402 3.13909589 141.97334565 3.1361949 138.62109375 3.1328125 C136.28752126 3.13348627 133.95394884 3.1344569 131.62037659 3.13571167 C126.73397146 3.13718491 121.84758464 3.13504587 116.96118164 3.13037109 C110.69766758 3.12467088 104.43419635 3.12795704 98.17068386 3.13394356 C93.35374122 3.13755653 88.53680874 3.13640724 83.7198658 3.13381577 C81.41018735 3.1331487 79.10050798 3.13396722 76.79083061 3.13629532 C73.56422353 3.13883422 70.3376859 3.13496382 67.11108398 3.12939453 C65.67944664 3.13243088 65.67944664 3.13243088 64.21888733 3.13552856 C59.98625114 3.12199171 56.14234853 2.94741355 52 2 C50.50746947 1.95367835 49.01260652 1.95799145 47.52026367 2.01000977 C46.23819283 2.04983727 46.23819283 2.04983727 44.93022156 2.09046936 C43.56290642 2.14043312 43.56290642 2.14043312 42.16796875 2.19140625 C40.21550361 2.24964541 38.26302933 2.30757853 36.31054688 2.36523438 C33.24942464 2.46211309 30.18849784 2.56246537 27.12768555 2.66870117 C24.1621618 2.76936113 21.19647062 2.8561773 18.23046875 2.94140625 C17.32499802 2.97673965 16.41952728 3.01207306 15.48661804 3.04847717 C9.93011265 3.19893301 5.33206996 2.59245475 0 1 C0 0.67 0 0.34 0 0 Z " fill="#F63409" transform="translate(368,265)"/>
<path d="M0 0 C2.79999139 0.00359713 5.59997758 0.00519607 8.39997101 0.0062561 C48.75981448 0.02515197 89.1122826 0.50539659 129.4668045 1.12857056 C129.4668045 1.45857056 129.4668045 1.78857056 129.4668045 2.12857056 C128.52928848 2.12634995 127.59177246 2.12412933 126.62584686 2.12184143 C114.55200957 2.09420373 102.47816855 2.07666184 90.4043045 2.06607056 C88.94839338 2.06478653 88.94839338 2.06478653 87.46306992 2.06347656 C58.42060273 2.04088612 29.39240696 2.2118231 0.35523224 2.77285767 C-1.4271711 2.80723183 -1.4271711 2.80723183 -3.24558258 2.84230042 C-5.51868083 2.88641627 -7.79176334 2.93135343 -10.06482697 2.97721863 C-18.05290064 3.12912298 -26.03667487 3.1622012 -34.02576447 3.06619263 C-39.84905079 2.99012229 -39.84905079 2.99012229 -45.5331955 4.12857056 C-45.8631955 4.78857056 -46.1931955 5.44857056 -46.5331955 6.12857056 C-46.5331955 5.13857056 -46.5331955 4.14857056 -46.5331955 3.12857056 C-47.60698456 3.27294556 -48.68077362 3.41732056 -49.78710175 3.56607056 C-51.22326906 3.75380485 -52.65946873 3.94129165 -54.0956955 4.12857056 C-54.80016815 4.22396118 -55.50464081 4.31935181 -56.23046112 4.41763306 C-60.69936941 4.99426638 -65.01836706 5.17848881 -69.5331955 5.12857056 C-71.86992534 5.43719525 -74.20312639 5.77313629 -76.5331955 6.12857056 C-79.12094465 6.34981323 -81.70851198 6.56062005 -84.2988205 6.74966431 C-86.81138638 7.01952412 -86.81138638 7.01952412 -89.5331955 9.12857056 C-90.1519455 9.39669556 -90.7706955 9.66482056 -91.4081955 9.94107056 C-95.69380202 12.33596832 -98.49686437 15.21537853 -99.8456955 19.94107056 C-100.186008 21.51888306 -100.186008 21.51888306 -100.5331955 23.12857056 C-99.2131955 23.78857056 -97.8931955 24.44857056 -96.5331955 25.12857056 C-96.8631955 26.44857056 -97.1931955 27.76857056 -97.5331955 29.12857056 C-96.8731955 29.12857056 -96.2131955 29.12857056 -95.5331955 29.12857056 C-94.19986216 30.46190389 -92.86652883 31.79523722 -91.5331955 33.12857056 C-87.12150348 34.63189606 -87.12150348 34.63189606 -82.5331955 35.12857056 C-82.5331955 36.11857056 -82.5331955 37.10857056 -82.5331955 38.12857056 C-54.90335848 38.94395143 -27.30483004 39.23564291 0.33615875 39.1468811 C10.69218318 39.11409275 21.04823294 39.10249442 31.4043045 39.09732056 C32.41435484 39.0967717 33.42440517 39.09622284 34.4650631 39.09565735 C58.14021937 39.08861377 81.80106374 39.44413716 105.4668045 40.12857056 C105.4668045 40.45857056 105.4668045 40.78857056 105.4668045 41.12857056 C93.88431324 41.26156931 82.30179649 41.39207444 70.71924496 41.51972198 C65.33617501 41.57911847 59.95311582 41.63925379 54.57007599 41.70132446 C-15.63502532 42.50901209 -15.63502532 42.50901209 -50.26903534 41.86611938 C-52.24159428 41.83194881 -54.21427303 41.80423799 -56.18700409 41.78213501 C-86.97319545 41.43414295 -86.97319545 41.43414295 -97.5331955 32.12857056 C-101.0528077 28.16900683 -102.33438442 24.57140661 -102.69335175 19.37075806 C-102.42232086 15.57632559 -101.00132715 12.97470436 -98.5331955 10.12857056 C-92.99842104 5.67668676 -87.32242686 4.03588784 -80.34178925 3.31216431 C-79.14747284 3.18776978 -77.95315643 3.06337524 -76.72264862 2.93521118 C-75.48450409 2.81339478 -74.24635956 2.69157837 -72.9706955 2.56607056 C-71.79055878 2.44038696 -70.61042206 2.31470337 -69.39452362 2.18521118 C-46.30193566 -0.15715966 -23.18286832 -0.03367147 0 0 Z " fill="#F8AD11" transform="translate(222.53319549560547,264.8714294433594)"/>
<path d="M0 0 C2.0625 0.4375 2.0625 0.4375 4 1 C-4.49653797 12.10959317 -13.11986226 23.26762886 -23.93115234 32.25073242 C-26.02853696 34.02412878 -28.04786191 35.86484406 -30.07421875 37.71875 C-54.56855332 59.5081275 -84.57488304 73.94543664 -115.875 82.875 C-116.83575439 83.14932861 -117.79650879 83.42365723 -118.78637695 83.70629883 C-134.48648445 87.9708036 -149.34549656 89.51319589 -165.5625 89.375 C-166.47744232 89.37200897 -167.39238464 89.36901794 -168.33505249 89.36593628 C-184.43229117 89.30427853 -200.21048671 88.35323684 -216 85 C-216 84.67 -216 84.34 -216 84 C-212.04 84 -208.08 84 -204 84 C-204 84.66 -204 85.32 -204 86 C-202.77023437 85.98839844 -201.54046875 85.97679687 -200.2734375 85.96484375 C-198.64062653 85.95545978 -197.0078139 85.94636023 -195.375 85.9375 C-194.16263672 85.92493164 -194.16263672 85.92493164 -192.92578125 85.91210938 C-189.59082954 85.89855266 -186.46005012 85.92004646 -183.16796875 86.4921875 C-178.1099264 87.30297111 -173.05172454 87.19047902 -167.9375 87.1875 C-166.79748535 87.18814453 -165.6574707 87.18878906 -164.48291016 87.18945312 C-153.90666463 87.12472162 -143.4953026 86.24784914 -133 85 C-133 84.34 -133 83.68 -133 83 C-130.36 82.67 -127.72 82.34 -125 82 C-124.505 80.515 -124.505 80.515 -124 79 C-123.67 79.66 -123.34 80.32 -123 81 C-119.18676849 81.20355328 -116.61176981 80.65115803 -113.125 79.125 C-110.14871146 77.86648037 -107.37142329 76.82190326 -104.25 75.9375 C-100.99618003 75.11066478 -100.99618003 75.11066478 -98.1875 73.5625 C-95.3654099 72.1791225 -92.95325233 71.41462746 -89.9375 70.625 C-85.41361041 69.35477875 -83.15572073 67.53823234 -80 64 C-79.01 64 -78.02 64 -77 64 C-74.99690671 63.68578929 -72.99628664 63.3548954 -71 63 C-71 62.34 -71 61.68 -71 61 C-70.34 61 -69.68 61 -69 61 C-68.67 59.68 -68.34 58.36 -68 57 C-66.68 57.66 -65.36 58.32 -64 59 C-64 58.34 -64 57.68 -64 57 C-63.01 57 -62.02 57 -61 57 C-60.67 56.34 -60.34 55.68 -60 55 C-59.34 55.33 -58.68 55.66 -58 56 C-57.67 55.01 -57.34 54.02 -57 53 C-54.4375 51.8125 -54.4375 51.8125 -52 51 C-52 49.35 -52 47.7 -52 46 C-49.525 45.505 -49.525 45.505 -47 45 C-47 45.66 -47 46.32 -47 47 C-44.96166576 45.7260411 -42.96147874 44.38938077 -41 43 C-41 42.34 -41 41.68 -41 41 C-36.61538462 38 -36.61538462 38 -34 38 C-33.67 37.01 -33.34 36.02 -33 35 C-31.68 35 -30.36 35 -29 35 C-28.71125 34.030625 -28.4225 33.06125 -28.125 32.0625 C-27 29 -27 29 -25 28 C-24.27840576 26.35636866 -23.60648579 24.68949614 -23 23 C-21.68 23.33 -20.36 23.66 -19 24 C-19.33 22.35 -19.66 20.7 -20 19 C-19.24847656 18.91363281 -18.49695313 18.82726562 -17.72265625 18.73828125 C-14.45825906 17.85310038 -13.52457276 16.79755155 -11.4375 14.1875 C-10.84453125 13.46949219 -10.2515625 12.75148438 -9.640625 12.01171875 C-8.82851563 11.01591797 -8.82851563 11.01591797 -8 10 C-5.6875 7.5 -5.6875 7.5 -4 6 C-3.34 6 -2.68 6 -2 6 C-1.855625 5.195625 -1.71125 4.39125 -1.5625 3.5625 C-1 1 -1 1 0 0 Z " fill="#20B5CA" transform="translate(572,441)"/>
<path d="M0 0 C2.47960136 0.14024219 4.95852402 0.2869185 7.4375 0.4375 C8.14455078 0.47681641 8.85160156 0.51613281 9.58007812 0.55664062 C14.88671875 0.88671875 14.88671875 0.88671875 16 2 C17.51674803 2.10184133 19.03822508 2.13397956 20.55838108 2.1386652 C21.54965647 2.14413964 22.54093186 2.14961409 23.56224591 2.15525442 C24.66436238 2.15623253 25.76647885 2.15721064 26.9019928 2.15821838 C28.06257609 2.16315636 29.22315939 2.16809434 30.41891187 2.17318195 C33.65470139 2.18593891 36.8904675 2.19419619 40.1262747 2.20060861 C43.61028325 2.2085901 47.09426966 2.22229556 50.57826233 2.23532104 C56.61929192 2.25711587 62.66032371 2.27524931 68.70137215 2.29092598 C77.43581273 2.31359731 86.17022884 2.34174388 94.90464871 2.37124526 C109.07419838 2.41895481 123.24375804 2.46220984 137.41333008 2.50268555 C151.18124163 2.54202339 164.9491443 2.58344548 178.71704102 2.62768555 C179.56508504 2.63040982 180.41312906 2.63313409 181.28687138 2.63594092 C185.54107709 2.64962011 189.79528267 2.66334044 194.04948819 2.67708123 C229.36630707 2.79109881 264.68314474 2.89789645 300 3 C300 2.34 300 1.68 300 1 C301.98 1.495 301.98 1.495 304 2 C297.94364726 5.17146654 292.8967277 5.42160183 286.12953186 5.36749268 C285.04453146 5.37076152 283.95953106 5.37403036 282.84165186 5.37739825 C279.21077936 5.38467314 275.58031068 5.3705265 271.94946289 5.35644531 C269.34388154 5.35723631 266.73830032 5.35933394 264.13272095 5.36264038 C257.79088237 5.36826784 251.44916496 5.35796802 245.10734702 5.34235242 C237.70977058 5.32477804 230.31221737 5.32339233 222.91462331 5.32273683 C209.70176383 5.32104919 196.48895927 5.30524445 183.27612305 5.28125 C170.48314966 5.25803513 157.69021108 5.24383102 144.8972168 5.24023438 C144.11057449 5.24001161 143.32393219 5.23978884 142.51345224 5.23955932 C140.92851289 5.23911669 139.34357353 5.23867466 137.75863418 5.23823325 C136.97660484 5.23801369 136.1945755 5.23779412 135.3888483 5.2375679 C134.60867521 5.23735192 133.82850212 5.23713593 133.02468741 5.2369134 C120.80136281 5.23319913 108.57804375 5.22183658 96.35472529 5.2094375 C91.93991064 5.20502181 87.5250965 5.20157545 83.11028052 5.19881538 C75.4371233 5.19393624 67.76399745 5.18374313 60.09085464 5.16798782 C57.5513438 5.16349623 55.01182943 5.16063368 52.47231483 5.15958023 C17.28718824 5.14172218 17.28718824 5.14172218 6 2.4375 C4.845 2.16808594 3.69 1.89867187 2.5 1.62109375 C1.675 1.41613281 0.85 1.21117187 0 1 C0 0.67 0 0.34 0 0 Z " fill="#13D6DF" transform="translate(136,230)"/>
<path d="M0 0 C0.77568215 -0.00636221 1.5513643 -0.01272442 2.35055196 -0.01927942 C4.42817831 -0.03642112 6.50574934 -0.05994144 8.58330727 -0.08398533 C13.32584314 0.10174917 16.78722666 1.05984289 21.0800972 3.05296135 C21.4100972 3.71296135 21.7400972 4.37296135 22.0800972 5.05296135 C21.21761269 4.91093619 20.35512819 4.76891103 19.46650779 4.62258208 C11.34349443 3.36177687 3.52286465 2.77757293 -4.68891525 2.85041618 C-5.89327449 2.85279089 -7.09763373 2.85516559 -8.3384887 2.85761225 C-11.63620599 2.86614326 -14.93372216 2.88373082 -18.2313745 2.9053731 C-21.8044145 2.92653497 -25.37748907 2.93569154 -28.95057297 2.94637871 C-35.12620121 2.96645938 -41.30175933 2.99398031 -47.47733307 3.02669716 C-56.40593661 3.07398799 -65.33455797 3.10983657 -74.2632239 3.14298041 C-88.75282712 3.19707364 -103.24237534 3.2602947 -117.73191452 3.32932854 C-131.79895408 3.39632971 -145.86600205 3.45898693 -159.9330864 3.51585197 C-160.80161098 3.51936442 -161.67013555 3.52287686 -162.56497906 3.52649574 C-166.9225387 3.54409172 -171.28009868 3.56160283 -175.63765883 3.57907176 C-211.73180197 3.72387838 -247.82586728 3.8835292 -283.9199028 4.05296135 C-283.9199028 3.72296135 -283.9199028 3.39296135 -283.9199028 3.05296135 C-279.02537447 1.80688647 -274.16259186 1.83330134 -269.14442062 1.74767876 C-267.67572199 1.71775355 -267.67572199 1.71775355 -266.17735267 1.68722379 C-262.92836317 1.62301041 -259.67929838 1.56618744 -256.43015671 1.51023674 C-255.30071679 1.48948589 -254.17127688 1.46873505 -253.00761151 1.44735539 C-228.09893729 0.99108015 -203.19072807 0.83863754 -178.27846098 0.74963832 C-172.21814377 0.72712995 -166.15784655 0.70006157 -160.09754562 0.67358208 C-149.97518944 0.62994291 -139.85282566 0.58904095 -129.73044968 0.5502758 C-115.49871525 0.49577257 -101.26700449 0.43634069 -87.03529429 0.37588012 C-67.90263895 0.29481611 -48.76997607 0.21529426 -29.63729286 0.14106941 C-27.5964421 0.13311753 -25.55559176 0.12505873 -23.5147419 0.11687851 C-22.55960512 0.11306231 -21.60446835 0.1092461 -20.62038803 0.10531425 C-19.69319969 0.10160635 -18.76601136 0.09789845 -17.8107264 0.09407818 C-15.16833162 0.08449122 -12.52594144 0.07784498 -9.88353729 0.07145309 C-6.58872231 0.06257888 -3.29460923 0.03743454 0 0 Z " fill="#15D7EA" transform="translate(415.9199028015137,335.9470386505127)"/>
<path d="M0 0 C10.86577138 -0.11586331 21.73139574 -0.20469999 32.59765911 -0.25906086 C37.64337169 -0.28515186 42.68866156 -0.32054101 47.73413086 -0.37719727 C52.60357122 -0.43153452 57.47260507 -0.46142428 62.34232521 -0.47438622 C64.19991264 -0.48362301 66.05747788 -0.5016606 67.9148922 -0.52865028 C70.51756184 -0.56496414 73.11855322 -0.56994449 75.72143555 -0.56762695 C76.87266403 -0.59459152 76.87266403 -0.59459152 78.04714966 -0.62210083 C82.06287418 -0.58342516 83.77543833 -0.18630011 86.9087677 2.41316223 C87.59887436 3.2668187 88.28898102 4.12047516 89 5 C89.57363281 5.64582031 90.14726562 6.29164063 90.73828125 6.95703125 C91.25777344 7.56933594 91.77726562 8.18164062 92.3125 8.8125 C98.35582537 15.74148512 104.34437669 21.53626804 112.09375 26.5546875 C113.03734375 27.27011719 113.03734375 27.27011719 114 28 C114 28.66 114 29.32 114 30 C110.26512223 29.5020163 108.18762365 29.12508244 105 27 C104.505 25.515 104.505 25.515 104 24 C103.01 23.34 102.02 22.68 101 22 C101 21.34 101 20.68 101 20 C100.01 20 99.02 20 98 20 C97.67 20.66 97.34 21.32 97 22 C96.505 18.535 96.505 18.535 96 15 C94.35 15 92.7 15 91 15 C89.68 12.36 88.36 9.72 87 7 C85.948125 7.20625 84.89625 7.4125 83.8125 7.625 C80.00375113 7.99963104 78.33164248 7.71630067 75 6 C75.66 5.01 76.32 4.02 77 3 C76.36408432 3.01474869 75.72816864 3.02949738 75.07298279 3.04469299 C68.43803721 3.19744298 61.80295006 3.34212368 55.16772461 3.48217773 C52.69339556 3.53545702 50.2191095 3.59077471 47.74487305 3.64819336 C44.18287424 3.73049793 40.62078377 3.8054049 37.05859375 3.87890625 C35.95728622 3.90594131 34.8559787 3.93297638 33.72129822 3.96083069 C28.32391395 4.06507106 23.32223693 3.85411112 18 3 C15.65739357 3.2602896 13.3182429 3.57420028 11 4 C11.66 4.66 12.32 5.32 13 6 C11.68 7.32 10.36 8.64 9 10 C9.33 10.66 9.66 11.32 10 12 C9.01 12 8.02 12 7 12 C7 12.66 7 13.32 7 14 C7.99 14.33 8.98 14.66 10 15 C10.12375 15.804375 10.2475 16.60875 10.375 17.4375 C10.58125 18.283125 10.7875 19.12875 11 20 C11.66 20.33 12.32 20.66 13 21 C13.99 20.67 14.98 20.34 16 20 C16.72170265 22.57750945 17.07638556 24.87079534 17.3125 27.5625 C17.66665646 31.06244552 17.66665646 31.06244552 20.0625 32.9375 C20.701875 33.288125 21.34125 33.63875 22 34 C21.67 35.32 21.34 36.64 21 38 C12.46553021 27.03557701 3.44001902 15.32005707 -1 2 C-0.67 1.34 -0.34 0.68 0 0 Z " fill="#8DEAEC" transform="translate(206,409)"/>
<path d="M0 0 C1 2 1 2 0.50390625 3.8828125 C-2.18888002 10.29633663 -5.90594948 14.35366876 -11 19 C-11.63679687 19.64839844 -12.27359375 20.29679687 -12.9296875 20.96484375 C-16.99984158 24.96588201 -21.56311803 28.41771535 -26 32 C-27.40378906 33.15242188 -27.40378906 33.15242188 -28.8359375 34.328125 C-29.71507812 35.04484375 -30.59421875 35.7615625 -31.5 36.5 C-32.2940625 37.1496875 -33.088125 37.799375 -33.90625 38.46875 C-36 40 -36 40 -39 41 C-39.495 41.99 -39.495 41.99 -40 43 C-41.53828463 43.66340335 -43.10693943 44.25729562 -44.6875 44.8125 C-48.11776023 46.10619814 -50.72165967 47.34355425 -53.4375 49.8125 C-54.283125 50.534375 -55.12875 51.25625 -56 52 C-57.485 51.505 -57.485 51.505 -59 51 C-60.9798916 51.45413925 -60.9798916 51.45413925 -63.0546875 52.328125 C-63.83457031 52.63363281 -64.61445313 52.93914062 -65.41796875 53.25390625 C-66.63419922 53.74697266 -66.63419922 53.74697266 -67.875 54.25 C-68.67808594 54.56324219 -69.48117187 54.87648438 -70.30859375 55.19921875 C-74.43519772 56.83762329 -78.27072392 58.55407804 -82 61 C-82 60.34 -82 59.68 -82 59 C-83.65 59 -85.3 59 -87 59 C-87 59.66 -87 60.32 -87 61 C-88.485 60.505 -88.485 60.505 -90 60 C-92.80588676 60.28354224 -95.58151592 60.62458773 -98.375 61 C-114.00987396 62.8849054 -131.86746282 62.67732967 -147 58 C-148.49724049 57.65448296 -149.99748079 57.32178742 -151.5 57 C-155.3909682 56.15907034 -159.18533272 55.13628387 -163 54 C-163 53.34 -163 52.68 -163 52 C-161.69657256 52.28887296 -160.39319889 52.57798852 -159.08984375 52.8671875 C-157.84823486 53.14127441 -157.84823486 53.14127441 -156.58154297 53.42089844 C-154.96615504 53.78326842 -153.35277302 54.15484167 -151.74267578 54.54003906 C-114.08076672 63.46061338 -73.31613482 58.41913314 -39.98925781 38.29199219 C-33.94061284 34.36349081 -28.45319391 29.70245424 -23 25 C-22.18660156 24.31550781 -21.37320313 23.63101562 -20.53515625 22.92578125 C-18.65374583 21.31881842 -16.81747516 19.67864025 -15 18 C-14.4225 17.47535156 -13.845 16.95070313 -13.25 16.41015625 C-8.07641365 11.50217813 -4.06417023 5.83762634 0 0 Z " fill="#2AA6C2" transform="translate(517,403)"/>
<path d="M0 0 C0.66 0 1.32 0 2 0 C3.94202557 5.8260767 3.57180841 11.94821687 1.9375 17.8125 C-1.65948411 23.73011902 -6.63007288 27.35854577 -13 30 C-16.0535716 30.38001961 -19.06037072 30.30160209 -22.13232422 30.21655273 C-23.04448133 30.20382796 -23.95663845 30.19110319 -24.89643669 30.17799282 C-26.8860564 30.14818937 -28.87557889 30.111238 -30.86495209 30.06800461 C-34.03653798 29.99920743 -37.2079429 29.94905978 -40.37994385 29.90359497 C-46.26160003 29.81629353 -52.14284529 29.71205425 -58.02416611 29.60473442 C-82.47095873 29.16391582 -106.91713018 28.8641336 -131.3671875 28.68359375 C-132.09855077 28.67818085 -132.82991404 28.67276795 -133.58343983 28.66719103 C-142.43789365 28.60202639 -151.29237531 28.54135057 -160.14687371 28.48259127 C-167.79979396 28.43168547 -175.45268921 28.37737731 -183.10558486 28.32291877 C-198.7370332 28.21175364 -214.36850512 28.10443073 -230 28 C-230 27.67 -230 27.34 -230 27 C-188.4767618 26.09198938 -146.95433744 25.88759136 -105.42252016 25.87716937 C-100.61598721 25.87587954 -95.80946041 25.8721182 -91.00292969 25.86743164 C-84.43225329 25.86127431 -77.86159556 25.86136189 -71.29091644 25.86568069 C-68.83490766 25.86667745 -66.37889767 25.8660899 -63.92288971 25.86384201 C-60.53092658 25.86129145 -57.13902863 25.86509665 -53.74707031 25.87060547 C-52.75527771 25.86857872 -51.76348511 25.86655197 -50.74163818 25.86446381 C-45.72608781 25.87981088 -40.95951557 26.14956913 -36 27 C-28.69091259 28.02583683 -21.36293393 28.51396363 -14 29 C-14 28.34 -14 27.68 -14 27 C-13.030625 26.731875 -12.06125 26.46375 -11.0625 26.1875 C-10.051875 25.795625 -9.04125 25.40375 -8 25 C-7.67 24.01 -7.34 23.02 -7 22 C-6.154375 21.62875 -5.30875 21.2575 -4.4375 20.875 C-1.78153786 19.28674371 -1.78153786 19.28674371 -1.70703125 16.84375 C-1.73538292 15.21481779 -1.80617455 13.58600285 -1.921875 11.9609375 C-1.96054687 10.99027344 -1.96054687 10.99027344 -2 10 C-1.67 9.67 -1.34 9.34 -1 9 C-0.76807135 7.48530552 -0.58784762 5.96245438 -0.4375 4.4375 C-0.35371094 3.61121094 -0.26992188 2.78492188 -0.18359375 1.93359375 C-0.12300781 1.29550781 -0.06242188 0.65742188 0 0 Z " fill="#E13D0C" transform="translate(558,278)"/>
<path d="M0 0 C1.61124724 0.10498432 1.61124724 0.10498432 3.25504494 0.21208954 C17.05095665 1.05459925 30.81608884 1.16502857 44.63427734 1.18945312 C47.15782809 1.19741433 49.68137751 1.2058037 52.20492554 1.21458435 C57.60063701 1.23251132 62.99634465 1.24767876 68.39207077 1.26036072 C76.20715908 1.27881924 84.02221907 1.30347727 91.83728464 1.32973462 C104.54109075 1.37234177 117.2449047 1.41149961 129.94873047 1.44775391 C131.08486654 1.45099811 131.08486654 1.45099811 132.24395485 1.45430785 C138.39110924 1.47183371 144.53826412 1.48918812 150.68541908 1.50651073 C156.06811163 1.52168157 161.450804 1.5369128 166.83349609 1.55224609 C167.9709504 1.5554844 167.9709504 1.5554844 169.13138358 1.55878812 C181.80062843 1.59497341 194.46985873 1.63492407 207.1390835 1.67754889 C214.93052503 1.70358285 222.72196233 1.72627093 230.51342602 1.74453247 C236.48416635 1.75876873 242.45488075 1.77790148 248.42560196 1.79878426 C250.86478965 1.80650424 253.30398318 1.81258941 255.74317932 1.81687737 C279.41284179 1.860097 279.41284179 1.860097 290 3 C286.42420691 5.24632165 283.66658449 5.16416334 279.50331116 4.97875977 C278.13966414 4.92689533 276.77601632 4.87505223 275.41236782 4.82322693 C274.68172174 4.79144285 273.95107567 4.75965878 273.1982888 4.72691154 C269.12815677 4.55374368 265.05668371 4.42464845 260.9848938 4.29736328 C260.10505725 4.26974757 259.22522069 4.24213186 258.31872243 4.21367931 C247.64507667 3.90028809 236.97213533 3.8951238 226.29467773 3.90234375 C224.72331328 3.90294328 224.72331328 3.90294328 223.12020409 3.90355492 C216.4657573 3.9071991 209.81133901 3.91853461 203.15690494 3.93153763 C197.23091401 3.94171033 191.3049193 3.94506461 185.37892151 3.94897461 C170.39843891 3.95994314 155.41797215 3.97952339 140.4375 4 C124.19290219 4.02214116 107.94831054 4.04265179 91.7037006 4.05341816 C84.69582979 4.0583531 77.68798878 4.06813701 70.68012989 4.08184814 C66.31328632 4.08937097 61.94644666 4.09263549 57.57959747 4.0948143 C55.57668631 4.09666603 53.57377576 4.10022529 51.57087135 4.10574722 C41.92389135 4.13148173 32.30373716 4.05309458 22.6676178 3.56030273 C21.91256689 3.52197106 21.15751597 3.48363939 20.37958473 3.44414616 C13.52176212 3.05067287 6.7749117 2.138362 0 1 C0 0.67 0 0.34 0 0 Z " fill="#15D7DD" transform="translate(148,375)"/>
<path d="M0 0 C1.10988281 0.24363281 1.10988281 0.24363281 2.2421875 0.4921875 C4.125 1.125 4.125 1.125 6.125 3.125 C4.8875 3.01671875 4.8875 3.01671875 3.625 2.90625 C-7.53195668 2.00970884 -18.6289097 1.74431991 -29.80492711 2.48205614 C-41.64276649 3.25772254 -53.46626187 3.29144303 -65.32519531 3.31445312 C-67.6271021 3.32241578 -69.92900744 3.33080525 -72.23091125 3.33958435 C-77.1529828 3.35750868 -82.07505144 3.37257077 -86.99713898 3.38536072 C-94.80099002 3.40576884 -102.6048058 3.43339505 -110.40863037 3.46203613 C-121.36632472 3.50172794 -132.32402538 3.53856661 -143.28173828 3.57275391 C-143.97456413 3.57491671 -144.66738997 3.57707951 -145.38121054 3.57930785 C-150.29580675 3.59462745 -155.21040334 3.60982379 -160.125 3.625 C-165.73225941 3.64232167 -171.3395186 3.65971115 -176.94677734 3.67724609 C-177.6375274 3.67940496 -178.32827746 3.68156383 -179.03995934 3.68378812 C-190.61875468 3.72009053 -202.19753441 3.76009395 -213.77630877 3.80254889 C-221.51255766 3.83065009 -229.2488029 3.85433252 -236.98507643 3.87447357 C-241.82298602 3.88800018 -246.66087641 3.90540259 -251.49876976 3.92378426 C-253.7180933 3.93144316 -255.9374229 3.93755383 -258.15675545 3.94187737 C-272.42260484 3.97071939 -286.62901014 4.36391323 -300.875 5.125 C-297.17296035 1.42296035 -292.22764837 1.98591364 -287.22665405 1.91868591 C-286.5710913 1.90868999 -285.91552855 1.89869408 -285.24010026 1.88839525 C-283.04991514 1.85636452 -280.85971122 1.83124037 -278.66943359 1.80639648 C-277.0962653 1.78546408 -275.52310073 1.76425033 -273.94993973 1.74277687 C-269.66579868 1.68605363 -265.38160317 1.63640115 -261.09735155 1.58883977 C-258.38537484 1.55844736 -255.67342143 1.52642444 -252.96146774 1.49404716 C-225.3410467 1.16790757 -197.72372856 1.05444957 -170.1015625 1.09765625 C-169.22524768 1.09894264 -168.34893286 1.10022902 -167.44606304 1.10155439 C-151.39864591 1.12542945 -135.35126203 1.16298664 -119.30390394 1.21249622 C-110.29068475 1.24027177 -101.27749487 1.261882 -92.26423776 1.27250665 C-88.06181288 1.27782991 -83.85947935 1.28670665 -79.65709305 1.30589485 C-60.39651475 1.39226931 -41.27358633 0.9530359 -22.05092323 -0.30997926 C-5.91999831 -1.36939463 -5.91999831 -1.36939463 0 0 Z " fill="#13D4EB" transform="translate(431.875,190.875)"/>
<path d="M0 0 C0.66 0.33 1.32 0.66 2 1 C1.54625 1.515625 1.0925 2.03125 0.625 2.5625 C-1.38200383 5.57300574 -2.12731809 8.50927237 -3 12 C-1.68 12.66 -0.36 13.32 1 14 C0.67 15.32 0.34 16.64 0 18 C0.66 18 1.32 18 2 18 C3.33333333 19.33333333 4.66666667 20.66666667 6 22 C10.41169202 23.50332551 10.41169202 23.50332551 15 24 C15 24.99 15 25.98 15 27 C42.62983702 27.81538088 70.22836546 28.10707236 97.86935425 28.01831055 C108.22537868 27.9855222 118.58142844 27.97392386 128.9375 27.96875 C129.94755033 27.96820114 130.95760067 27.96765228 131.99825859 27.96708679 C155.67341486 27.96004321 179.33425923 28.31556661 203 29 C203 29.33 203 29.66 203 30 C191.41750874 30.13299875 179.83499199 30.26350388 168.25244045 30.39115143 C162.8693705 30.45054791 157.48631132 30.51068324 152.10327148 30.57275391 C81.89817018 31.38044154 81.89817018 31.38044154 47.26416016 30.73754883 C45.29160122 30.70337825 43.31892247 30.67566744 41.34619141 30.65356445 C10.56000004 30.30557239 10.56000004 30.30557239 0 21 C-4.04460398 16.44982052 -5.05683754 11.96794199 -5 6 C-4.67 5.01 -4.34 4.02 -4 3 C-3.01 3 -2.02 3 -1 3 C-0.67 2.01 -0.34 1.02 0 0 Z " fill="#F0C513" transform="translate(125,276)"/>
<path d="M0 0 C0.66 0.66 1.32 1.32 2 2 C1.24363896 11.37887685 -4.49006935 18.49006935 -11 25 C-11.71408334 26.98356483 -12.38617742 28.98315437 -13 31 C-13.86625 30.814375 -14.7325 30.62875 -15.625 30.4375 C-19.0625025 30.64142775 -19.0625025 30.64142775 -20.734375 33.00390625 C-22.24128854 35.29656756 -23.66052233 37.60603991 -25 40 C-26.37183973 35.8844808 -25.0367258 34.21759122 -23.24755859 30.42529297 C-21.31103546 26.66063136 -19.13135578 23.10208675 -16.8125 19.5625 C-16.09719116 18.46325195 -16.09719116 18.46325195 -15.36743164 17.34179688 C-5.77075528 2.88537764 -5.77075528 2.88537764 0 0 Z " fill="#1CD9F7" transform="translate(542,370)"/>
<path d="M0 0 C0.99 1.32 1.98 2.64 3 4 C2.195625 4.61875 1.39125 5.2375 0.5625 5.875 C-2.03874519 7.74164041 -2.03874519 7.74164041 -3 10 C-3.99 10 -4.98 10 -6 10 C-7.44081088 12.43136837 -8.03648586 13.63514143 -7.75 16.5 C-7.8325 17.325 -7.915 18.15 -8 19 C-10 20.33333333 -12 21.66666667 -14 23 C-15.03485877 25.31808364 -16.0355414 27.65175298 -17 30 C-18.64639965 31.35827971 -20.31295807 32.69254251 -22 34 C-23.01622658 35.99180409 -24.01712992 37.99152635 -25 40 C-27.1875 41.875 -27.1875 41.875 -29 43 C-28.67 43.66 -28.34 44.32 -28 45 C-28.33 45.66 -28.66 46.32 -29 47 C-29.66 47 -30.32 47 -31 47 C-31 48.32 -31 49.64 -31 51 C-31.99 51 -32.98 51 -34 51 C-34 51.66 -34 52.32 -34 53 C-34.66 53 -35.32 53 -36 53 C-34.33117616 46.8253518 -31.14985155 41.51411068 -28 36 C-27.23236328 34.65228516 -27.23236328 34.65228516 -26.44921875 33.27734375 C-23.00648433 27.37932588 -19.4741226 22.35041647 -14.5 17.625 C-11.89897885 14.89392779 -10.18516289 12.14554047 -8.26171875 8.9296875 C-6.50881111 6.24876993 -4.35030396 4.15973878 -2 2 C-1.34 1.34 -0.68 0.68 0 0 Z " fill="#D5F4F9" transform="translate(243,106)"/>
<path d="M0 0 C0 0.33 0 0.66 0 1 C-11.58249126 1.13299875 -23.16500801 1.26350388 -34.74755955 1.39115143 C-40.1306295 1.45054791 -45.51368868 1.51068324 -50.89672852 1.57275391 C-78.26571915 1.88770642 -105.62912821 2.07768643 -133 2 C-133 1.67 -133 1.34 -133 1 C-126.87887406 -0.37949756 -120.75184607 -0.37590065 -114.5 -0.5625 C-113.81040192 -0.58334656 -113.12080383 -0.60419312 -112.41030884 -0.62567139 C-74.94656452 -1.72491176 -37.45913707 -0.86669347 0 0 Z " fill="#E9A314" transform="translate(328,305)"/>
<path d="M0 0 C1.53515625 1.6796875 1.53515625 1.6796875 3.0625 3.875 C9.53335305 12.55811051 17.05715598 19.845065 26.19921875 25.66015625 C26.79347656 26.10230469 27.38773437 26.54445313 28 27 C28 27.66 28 28.32 28 29 C24.26512223 28.5020163 22.18762365 28.12508244 19 26 C18.505 24.515 18.505 24.515 18 23 C17.01 22.34 16.02 21.68 15 21 C15 20.34 15 19.68 15 19 C14.01 19 13.02 19 12 19 C11.67 19.66 11.34 20.32 11 21 C10.67 18.69 10.34 16.38 10 14 C8.35 14 6.7 14 5 14 C3.68 11.36 2.36 8.72 1 6 C-0.051875 6.20625 -1.10375 6.4125 -2.1875 6.625 C-5.99624887 6.99963104 -7.66835752 6.71630067 -11 5 C-10.34 4.01 -9.68 3.02 -9 2 C-11.64 1.67 -14.28 1.34 -17 1 C-17 0.67 -17 0.34 -17 0 C-14.9174133 -0.19561869 -12.83388144 -0.38119313 -10.75 -0.5625 C-9.58984375 -0.66691406 -8.4296875 -0.77132813 -7.234375 -0.87890625 C-2.43428784 -1.05861966 -2.43428784 -1.05861966 0 0 Z " fill="#77D7D8" transform="translate(292,410)"/>
<path d="M0 0 C2.47960136 0.14024219 4.95852402 0.2869185 7.4375 0.4375 C8.14455078 0.47681641 8.85160156 0.51613281 9.58007812 0.55664062 C14.88671875 0.88671875 14.88671875 0.88671875 16 2 C17.50190052 2.15485006 19.0106767 2.2438144 20.51928711 2.30528259 C21.47718643 2.34560639 22.43508575 2.38593019 23.42201233 2.42747593 C24.4673967 2.46550799 25.51278107 2.50354006 26.58984375 2.54272461 C27.67103989 2.58454581 28.75223602 2.62636702 29.86619568 2.66945553 C41.09678277 3.08009404 52.32557156 3.22286741 63.5625 3.31640625 C65.70296549 3.33706349 67.84342771 3.35806159 69.98388672 3.37937927 C75.52705176 3.43369745 81.0702478 3.48349145 86.61346436 3.53222656 C92.3061386 3.58311539 97.99876968 3.63844396 103.69140625 3.69335938 C114.79423368 3.79983102 125.89709912 3.90150621 137 4 C137 4.33 137 4.66 137 5 C123.32526766 5.02326963 109.65054011 5.04098914 95.97579193 5.05181217 C89.62464188 5.0570092 83.27350548 5.06404847 76.92236328 5.07543945 C70.78207771 5.08638213 64.64180519 5.09230073 58.50151062 5.09487724 C56.17021988 5.09671113 53.83892977 5.10029181 51.50764465 5.10573006 C17.45503811 5.18193621 17.45503811 5.18193621 6 2.4375 C4.845 2.16808594 3.69 1.89867187 2.5 1.62109375 C1.675 1.41613281 0.85 1.21117187 0 1 C0 0.67 0 0.34 0 0 Z " fill="#1BD3D0" transform="translate(136,230)"/>
<path d="M0 0 C2.0625 0.4375 2.0625 0.4375 4 1 C-14.38421509 25.03816132 -14.38421509 25.03816132 -25 33 C-25.99 33 -26.98 33 -28 33 C-26.33333333 29.66666667 -24.66666667 26.33333333 -23 23 C-21.68 23.33 -20.36 23.66 -19 24 C-19.33 22.35 -19.66 20.7 -20 19 C-19.24847656 18.91363281 -18.49695313 18.82726562 -17.72265625 18.73828125 C-14.45825906 17.85310038 -13.52457276 16.79755155 -11.4375 14.1875 C-10.54804687 13.11048828 -10.54804687 13.11048828 -9.640625 12.01171875 C-9.09921875 11.34785156 -8.5578125 10.68398438 -8 10 C-5.6875 7.5 -5.6875 7.5 -4 6 C-3.34 6 -2.68 6 -2 6 C-1.855625 5.195625 -1.71125 4.39125 -1.5625 3.5625 C-1 1 -1 1 0 0 Z " fill="#30B7CB" transform="translate(572,441)"/>
<path d="M0 0 C0.495 0.99 0.495 0.99 1 2 C0.16765839 1.85789093 -0.66468323 1.71578186 -1.52224731 1.56936646 C-10.53611685 0.14152197 -19.24120399 -0.26774705 -28.3671875 -0.1953125 C-29.78207191 -0.19156909 -31.19695896 -0.18872842 -32.61184692 -0.18673706 C-36.28439863 -0.1792049 -39.95678486 -0.15964998 -43.62927246 -0.1373291 C-47.39735681 -0.11664222 -51.16546864 -0.1076872 -54.93359375 -0.09765625 C-62.28913685 -0.07639094 -69.64454499 -0.04238597 -77 0 C-77 -0.33 -77 -0.66 -77 -1 C-75.84588623 -1.02505615 -74.69177246 -1.0501123 -73.50268555 -1.07592773 C-69.1731678 -1.17092765 -64.84377643 -1.27091253 -60.5144043 -1.37231445 C-58.64952576 -1.41531666 -56.78461657 -1.4570119 -54.91967773 -1.49731445 C-41.57074396 -1.7707866 -41.57074396 -1.7707866 -28.26196289 -2.77954102 C-18.71861427 -3.70966987 -8.83214053 -4.10063668 0 0 Z " fill="#0ED0EE" transform="translate(437,339)"/>
<path d="M0 0 C0.66 0 1.32 0 2 0 C3.94202557 5.8260767 3.57180841 11.94821687 1.9375 17.8125 C-1.61228932 23.65247597 -6.63479921 27.52744749 -13 30 C-16.63484489 30.35142027 -20.22771558 30.28387134 -23.875 30.1875 C-24.84953125 30.17396484 -25.8240625 30.16042969 -26.828125 30.14648438 C-29.21932863 30.11131962 -31.60936975 30.0621067 -34 30 C-34 29.67 -34 29.34 -34 29 C-29.38034912 28.04053405 -25.31870875 28.03897756 -20.625 28.4375 C-18.75714844 28.59025391 -18.75714844 28.59025391 -16.8515625 28.74609375 C-15.91054688 28.82988281 -14.96953125 28.91367187 -14 29 C-14 28.34 -14 27.68 -14 27 C-13.030625 26.731875 -12.06125 26.46375 -11.0625 26.1875 C-10.051875 25.795625 -9.04125 25.40375 -8 25 C-7.67 24.01 -7.34 23.02 -7 22 C-6.154375 21.62875 -5.30875 21.2575 -4.4375 20.875 C-1.78153786 19.28674371 -1.78153786 19.28674371 -1.70703125 16.84375 C-1.73538292 15.21481779 -1.80617455 13.58600285 -1.921875 11.9609375 C-1.94765625 11.31382812 -1.9734375 10.66671875 -2 10 C-1.67 9.67 -1.34 9.34 -1 9 C-0.76807135 7.48530552 -0.58784762 5.96245438 -0.4375 4.4375 C-0.35371094 3.61121094 -0.26992188 2.78492188 -0.18359375 1.93359375 C-0.09271484 0.97646484 -0.09271484 0.97646484 0 0 Z " fill="#EF2D08" transform="translate(558,278)"/>
<path d="M0 0 C0.33 0 0.66 0 1 0 C1.38831218 2.95714663 1.76115547 5.91483273 2.125 8.875 C2.23714844 9.71675781 2.34929687 10.55851562 2.46484375 11.42578125 C2.56152344 12.23144531 2.65820312 13.03710938 2.7578125 13.8671875 C2.8520752 14.61081543 2.94633789 15.35444336 3.04345703 16.12060547 C3 18 3 18 1 20 C-6.10396335 21.35787974 -13.23187449 21.22116308 -20.4375 21.25 C-22.36432617 21.2809375 -22.36432617 21.2809375 -24.33007812 21.3125 C-31.25556738 21.34104401 -36.77753731 21.16739075 -43 18 C-45.5 15.3125 -45.5 15.3125 -47 13 C-44.75 13.25 -44.75 13.25 -42 14 C-41.46729492 14.66741211 -40.93458984 15.33482422 -40.38574219 16.02246094 C-36.80729543 18.9886315 -33.58578537 18.50241943 -29.078125 18.390625 C-28.21813904 18.38496521 -27.35815308 18.37930542 -26.47210693 18.37347412 C-23.73083351 18.35111951 -20.99087696 18.30092602 -18.25 18.25 C-16.38934182 18.22993376 -14.52866311 18.21168321 -12.66796875 18.1953125 C-8.11147334 18.15125784 -3.55595978 18.08223754 1 18 C0.83701416 16.74123047 0.67402832 15.48246094 0.50610352 14.18554688 C0.08511761 10.93419555 -0.10810155 7.78331139 -0.0625 4.5 C-0.05347656 3.6440625 -0.04445312 2.788125 -0.03515625 1.90625 C-0.02355469 1.2771875 -0.01195312 0.648125 0 0 Z " fill="#18DDDF" transform="translate(86,350)"/>
<path d="M0 0 C6.45270431 5.5308894 9.51383961 13.94393194 10.3125 22.25 C9.88562732 27.3724721 8.49014013 32.0949554 7 37 C6.34 37 5.68 37 5 37 C4.77837671 35.37675914 4.57310197 33.751279 4.375 32.125 C4.25898437 31.22007812 4.14296875 30.31515625 4.0234375 29.3828125 C4.01570312 28.59648437 4.00796875 27.81015625 4 27 C4.66 26.34 5.32 25.68 6 25 C6.33 25 6.66 25 7 25 C7 23.02 7 21.04 7 19 C6.34 19 5.68 19 5 19 C5.33 18.01 5.66 17.02 6 16 C5.07796291 13.63477442 4.08301035 11.29598193 3 9 C1.68 9.33 0.36 9.66 -1 10 C-1 6.58900832 -0.50854594 3.36911686 0 0 Z " fill="#69D6E4" transform="translate(587,374)"/>
<path d="M0 0 C0.33 0.66 0.66 1.32 1 2 C0.0625 4.125 0.0625 4.125 -1 6 C-1.66 6 -2.32 6 -3 6 C-3.33 8.31 -3.66 10.62 -4 13 C-3.34 13.33 -2.68 13.66 -2 14 C-2.33 16.31 -2.66 18.62 -3 21 C-3.86625 20.814375 -4.7325 20.62875 -5.625 20.4375 C-9.0625025 20.64142775 -9.0625025 20.64142775 -10.734375 23.00390625 C-12.24128854 25.29656756 -13.66052233 27.60603991 -15 30 C-16.36836348 25.89490956 -15.06567052 24.25007783 -13.28271484 20.46484375 C-11.20667974 16.47556883 -8.80287991 12.74051764 -6.3125 9 C-5.81427734 8.23816406 -5.31605469 7.47632813 -4.80273438 6.69140625 C-1.18727679 1.18727679 -1.18727679 1.18727679 0 0 Z " fill="#16BFE1" transform="translate(532,380)"/>
<path d="M0 0 C18.48 0 36.96 0 56 0 C55.67 0.66 55.34 1.32 55 2 C48.45333205 2.19453893 41.90635532 2.37171584 35.35888672 2.53710938 C33.13384488 2.59533114 30.90890145 2.657455 28.68408203 2.72363281 C25.47707041 2.81833651 22.26996117 2.8987738 19.0625 2.9765625 C18.07572266 3.00875885 17.08894531 3.0409552 16.07226562 3.0741272 C10.31737073 3.19757492 5.51613738 2.66965729 0 1 C0 0.67 0 0.34 0 0 Z " fill="#F94F09" transform="translate(368,265)"/>
<path d="M0 0 C1.31162109 -0.00257813 2.62324219 -0.00515625 3.97460938 -0.0078125 C4.65048096 -0.00362305 5.32635254 0.00056641 6.02270508 0.00488281 C8.08769989 0.01561386 10.15182842 0.00494785 12.21679688 -0.0078125 C14.18229492 -0.00394531 14.18229492 -0.00394531 16.1875 0 C17.37996338 0.00225586 18.57242676 0.00451172 19.80102539 0.00683594 C23.01262192 0.26444413 25.20657112 0.72243063 28.02734375 2.265625 C29.33984375 5.390625 29.33984375 5.390625 30.02734375 8.265625 C27.58984375 7.515625 27.58984375 7.515625 25.02734375 6.265625 C24.3671875 4.1875 24.3671875 4.1875 24.02734375 2.265625 C19.41902584 2.38423684 14.81090762 2.50850861 10.20288086 2.63793945 C8.63651639 2.68114839 7.07010908 2.72283291 5.50366211 2.76293945 C3.24710195 2.82098371 0.99075467 2.88457802 -1.265625 2.94921875 C-1.96165329 2.96593124 -2.65768158 2.98264374 -3.37480164 2.99986267 C-7.01138422 3.10970919 -10.43058052 3.42284491 -13.97265625 4.265625 C-12.97265625 2.265625 -12.97265625 2.265625 -10.34594727 1.15722656 C-6.75583238 0.20831583 -3.7092829 0.00701046 0 0 Z " fill="#15D7E3" transform="translate(55.97265625,338.734375)"/>
<path d="M0 0 C0.66 0.33 1.32 0.66 2 1 C1.54625 1.515625 1.0925 2.03125 0.625 2.5625 C-1.38200383 5.57300574 -2.12731809 8.50927237 -3 12 C-1.68 12.66 -0.36 13.32 1 14 C0.67 15.32 0.34 16.64 0 18 C0.66 18 1.32 18 2 18 C3.33333333 19.33333333 4.66666667 20.66666667 6 22 C10.41169202 23.50332551 10.41169202 23.50332551 15 24 C15 24.99 15 25.98 15 27 C8.355139 26.12014686 3.69626716 25.1435307 -1 20 C-4.08863107 15.70032514 -5.32634642 12.31241052 -4.75 7 C-4.52405083 5.66238094 -4.28256232 4.32681435 -4 3 C-3.01 3 -2.02 3 -1 3 C-0.67 2.01 -0.34 1.02 0 0 Z " fill="#E8DC12" transform="translate(125,276)"/>
<path d="M0 0 C0.73992187 0.16242188 1.47984375 0.32484375 2.2421875 0.4921875 C4.125 1.125 4.125 1.125 6.125 3.125 C5.35655762 3.0535376 4.58811523 2.9820752 3.79638672 2.90844727 C-7.06241357 2.00682824 -17.86153708 2.01087283 -28.75 2.0625 C-30.61328004 2.06752888 -32.4765614 2.07208931 -34.33984375 2.07617188 C-38.85159595 2.08705869 -43.36328285 2.10424546 -47.875 2.125 C-47.875 1.795 -47.875 1.465 -47.875 1.125 C-43.0371184 0.83717666 -38.19906729 0.55245803 -33.36083984 0.27050781 C-31.71788708 0.17433812 -30.07498214 0.07734753 -28.43212891 -0.02050781 C-26.05904303 -0.16171146 -23.68579595 -0.29987781 -21.3125 -0.4375 C-20.22606201 -0.50312134 -20.22606201 -0.50312134 -19.11767578 -0.57006836 C-5.76567937 -1.33369807 -5.76567937 -1.33369807 0 0 Z " fill="#0FC1E1" transform="translate(431.875,190.875)"/>
<path d="M0 0 C0.66 0.33 1.32 0.66 2 1 C-0.92264043 5.2715514 -3.0401766 6.65671449 -8 8 C-8.7425 8.37125 -9.485 8.7425 -10.25 9.125 C-12 10 -12 10 -14 10 C-14 11.32 -14 12.64 -14 14 C-15.65 14.33 -17.3 14.66 -19 15 C-19 15.66 -19 16.32 -19 17 C-20.65 17 -22.3 17 -24 17 C-23 15 -23 15 -20.875 13.75 C-18.52316779 12.31844996 -16.86899784 11.02332012 -14.875 9.1875 C-10.46725871 5.31491493 -5.39518556 2.29944061 0 0 Z " fill="#D4ECEB" transform="translate(290,70)"/>
<path d="M0 0 C-1.69270833 0.68359375 -3.38541667 1.3671875 -5.078125 2.05078125 C-7.08570047 2.95085613 -7.08570047 2.95085613 -8.86328125 4.5390625 C-11.56020694 6.38302997 -13.71184925 6.64353149 -16.9375 7.0625 C-20.9203169 7.59119251 -24.3697897 8.2271066 -28 10 C-28.33 10.66 -28.66 11.32 -29 12 C-30.32 11.34 -31.64 10.68 -33 10 C-26.36326194 6.69624933 -19.56853118 4.02250653 -12.5625 1.625 C-11.78148926 1.35026855 -11.00047852 1.07553711 -10.19580078 0.79248047 C-9.07987549 0.41953857 -9.07987549 0.41953857 -7.94140625 0.0390625 C-7.27826416 -0.18571777 -6.61512207 -0.41049805 -5.93188477 -0.64208984 C-3.66576634 -1.06192172 -2.17426167 -0.70043735 0 0 Z " fill="#D6EDEC" transform="translate(346,48)"/>
<path d="M0 0 C0.33 0.66 0.66 1.32 1 2 C-1.31 1.34 -3.62 0.68 -6 0 C-6 -0.66 -6 -1.32 -6 -2 C-6.99 -1.67 -7.98 -1.34 -9 -1 C-9 -1.66 -9 -2.32 -9 -3 C-10.0828125 -2.7215625 -10.0828125 -2.7215625 -11.1875 -2.4375 C-14 -2 -14 -2 -16.5625 -2.5625 C-19.50918971 -3.09139302 -20.45794318 -2.44049886 -23 -1 C-23.99 -1 -24.98 -1 -26 -1 C-26.99 -0.34 -27.98 0.32 -29 1 C-28.375 -1.375 -28.375 -1.375 -27 -4 C-18.44737988 -8.82455494 -7.59424509 -5.015952 0 0 Z " fill="#A7D7D9" transform="translate(582,369)"/>
<path d="M0 0 C1.63001953 0.01353516 1.63001953 0.01353516 3.29296875 0.02734375 C4.12441406 0.03894531 4.95585937 0.05054688 5.8125 0.0625 C5.8125 0.3925 5.8125 0.7225 5.8125 1.0625 C3.5025 1.3925 1.1925 1.7225 -1.1875 2.0625 C-0.5275 2.7225 0.1325 3.3825 0.8125 4.0625 C-0.5075 5.3825 -1.8275 6.7025 -3.1875 8.0625 C-2.8575 8.7225 -2.5275 9.3825 -2.1875 10.0625 C-3.8375 9.7325 -5.4875 9.4025 -7.1875 9.0625 C-7.8475 6.4225 -8.5075 3.7825 -9.1875 1.0625 C-5.90230525 -0.03256492 -3.45086585 -0.03710608 0 0 Z " fill="#8CF7FC" transform="translate(218.1875,410.9375)"/>
<path d="M0 0 C1 2 1 2 0.50390625 3.8828125 C-2.18468253 10.28633929 -5.89832939 14.36973632 -11 19 C-12.00560839 19.99435998 -13.0077576 20.99230211 -14 22 C-14.33 21.34 -14.66 20.68 -15 20 C-13.16019621 16.37468172 -10.81678673 13.52824829 -8.0625 10.5625 C-5.00239834 7.1924433 -2.38299178 3.87236165 0 0 Z " fill="#2BA5C0" transform="translate(517,403)"/>
<path d="M0 0 C0 0.99 0 1.98 0 3 C-0.99 3.33 -1.98 3.66 -3 4 C-3.09796875 4.67546875 -3.1959375 5.3509375 -3.296875 6.046875 C-4.78207381 14.90685413 -4.78207381 14.90685413 -9 18 C-9.99 17.67 -10.98 17.34 -12 17 C-11.34 14.69 -10.68 12.38 -10 10 C-9.34 10 -8.68 10 -8 10 C-7.79375 9.0925 -7.5875 8.185 -7.375 7.25 C-5.6795921 3.24267224 -3.72450216 2.10515339 0 0 Z " fill="#0DD4F4" transform="translate(539,376)"/>
<path d="M0 0 C0.33 0.99 0.66 1.98 1 3 C0.01 3.33 -0.98 3.66 -2 4 C-2 4.66 -2 5.32 -2 6 C-3.98 6.66 -5.96 7.32 -8 8 C-8 9.32 -8 10.64 -8 12 C-10.3359375 13.95703125 -10.3359375 13.95703125 -13.375 15.8125 C-14.37273437 16.43769531 -15.37046875 17.06289062 -16.3984375 17.70703125 C-17.25695312 18.13371094 -18.11546875 18.56039062 -19 19 C-19.66 18.67 -20.32 18.34 -21 18 C-17.48864508 14.39164632 -13.82725339 11.0748726 -9.9375 7.875 C-9.42123047 7.44574219 -8.90496094 7.01648438 -8.37304688 6.57421875 C-5.63502054 4.30706318 -2.86603881 2.10313639 0 0 Z " fill="#BDDFE4" transform="translate(265,87)"/>
<path d="M0 0 C1.2478125 0.28875 2.495625 0.5775 3.78125 0.875 C7.3933584 1.67894889 11.00917765 2.37393581 14.65625 3 C15.6153125 3.165 16.574375 3.33 17.5625 3.5 C19.55121016 3.83850386 21.54083261 4.17168373 23.53125 4.5 C24.48 4.665 25.42875 4.83 26.40625 5 C27.26541016 5.144375 28.12457031 5.28875 29.00976562 5.4375 C29.66654297 5.623125 30.32332031 5.80875 31 6 C31.33 6.66 31.66 7.32 32 8 C26.21656938 8.23605839 21.56425293 7.78850987 16 6 C14.50321126 5.65253119 13.00292652 5.31987963 11.5 5 C7.6090318 4.15907034 3.81466728 3.13628387 0 2 C0 1.34 0 0.68 0 0 Z " fill="#2FB3C7" transform="translate(354,455)"/>
<path d="M0 0 C0.66 0.33 1.32 0.66 2 1 C1.01 1.66 0.02 2.32 -1 3 C-0.67 2.01 -0.34 1.02 0 0 Z M-1 3 C-1.33 3.66 -1.66 4.32 -2 5 C-2.66 5 -3.32 5 -4 5 C-4.33 5.66 -4.66 6.32 -5 7 C-7.14453125 8 -7.14453125 8 -9.8125 9 C-12.97037517 10.19411528 -16.00593105 11.4366633 -19 13 C-18.82421875 11.203125 -18.82421875 11.203125 -18 9 C-15.70703125 7.296875 -15.70703125 7.296875 -12.8125 5.75 C-11.39904297 4.96882813 -11.39904297 4.96882813 -9.95703125 4.171875 C-6.74782011 2.90006081 -4.41939684 2.77710598 -1 3 Z M-22 14 C-21.34 14 -20.68 14 -20 14 C-20.33 14.66 -20.66 15.32 -21 16 C-21.33 15.34 -21.66 14.68 -22 14 Z " fill="#24AFCE" transform="translate(482,439)"/>
<path d="M0 0 C11.05561292 -0.09920291 21.98906587 -0.12520495 33 1 C23.99224301 6.29126984 9.92079015 2.31650296 0 1 C0 0.67 0 0.34 0 0 Z " fill="#0FC7E6" transform="translate(405,377)"/>
<path d="M0 0 C1.46534385 3.80989402 0.55203911 6.3241179 -1 10 C-1.99 10.495 -1.99 10.495 -3 11 C-2.67 11.66 -2.34 12.32 -2 13 C-2.33 13.66 -2.66 14.32 -3 15 C-3.66 15 -4.32 15 -5 15 C-5 16.32 -5 17.64 -5 19 C-5.99 19 -6.98 19 -8 19 C-8 19.66 -8 20.32 -8 21 C-8.66 21 -9.32 21 -10 21 C-8.58196151 15.75325757 -6.07547762 11.29472755 -3.4375 6.5859375 C-2.23043322 4.41452933 -1.08974149 2.23187439 0 0 Z " fill="#D1EFF1" transform="translate(217,138)"/>
<path d="M0 0 C4.23490358 3.62991735 7.57037352 8.43544281 8.25 14.07421875 C8.25 16 8.25 16 8 19 C7.01 19 6.02 19 5 19 C5.33 18.01 5.66 17.02 6 16 C5.07796291 13.63477442 4.08301035 11.29598193 3 9 C1.68 9.33 0.36 9.66 -1 10 C-1 6.58900832 -0.50854594 3.36911686 0 0 Z " fill="#9DE0EA" transform="translate(587,374)"/>
<path d="M0 0 C1.125 3.75 1.125 3.75 0 6 C0.66 6 1.32 6 2 6 C2 6.66 2 7.32 2 8 C1.39671875 8.24492187 0.7934375 8.48984375 0.171875 8.7421875 C-2.38964779 10.22565933 -3.27500992 11.58473931 -4.75 14.125 C-5.17796875 14.84945313 -5.6059375 15.57390625 -6.046875 16.3203125 C-6.36140625 16.87460937 -6.6759375 17.42890625 -7 18 C-8.37865891 13.86402327 -6.97864319 12.10798653 -5.19140625 8.296875 C-3.66228999 5.3489394 -1.93580534 2.6963003 0 0 Z " fill="#21B8DA" transform="translate(524,392)"/>
<path d="M0 0 C2.47960136 0.14024219 4.95852402 0.2869185 7.4375 0.4375 C8.14455078 0.47681641 8.85160156 0.51613281 9.58007812 0.55664062 C14.88671875 0.88671875 14.88671875 0.88671875 16 2 C17.77869726 2.15764405 19.56318476 2.25100677 21.34765625 2.31640625 C22.42724609 2.35830078 23.50683594 2.40019531 24.61914062 2.44335938 C26.32360352 2.50233398 26.32360352 2.50233398 28.0625 2.5625 C29.20267578 2.60568359 30.34285156 2.64886719 31.51757812 2.69335938 C34.34492195 2.79982839 37.17235738 2.90184207 40 3 C40 3.33 40 3.66 40 4 C11.84846857 4.61916858 11.84846857 4.61916858 0 1 C0 0.67 0 0.34 0 0 Z " fill="#16E2E0" transform="translate(136,230)"/>
<path d="M0 0 C0.33 0.66 0.66 1.32 1 2 C-0.09655288 3.31886772 -1.20253423 4.62990057 -2.3125 5.9375 C-2.92738281 6.66839844 -3.54226562 7.39929688 -4.17578125 8.15234375 C-6 10 -6 10 -9 11 C-9.99 10.34 -10.98 9.68 -12 9 C-8.53005564 5.0963126 -4.44775994 2.63411025 0 0 Z " fill="#E8FCFE" transform="translate(255,99)"/>
<path d="M0 0 C1.60185089 2.66975149 2.04181804 4.39727137 2.375 7.5625 C2.65995351 11.0653342 2.65995351 11.0653342 5.0625 12.9375 C5.701875 13.288125 6.34125 13.63875 7 14 C6.67 15.32 6.34 16.64 6 18 C4.67683464 16.27898082 3.36685476 14.54781907 2.0625 12.8125 C1.33160156 11.84957031 0.60070312 10.88664062 -0.15234375 9.89453125 C-1.92952746 7.11040201 -2.62645444 5.24332415 -3 2 C-2.01 1.34 -1.02 0.68 0 0 Z " fill="#A6F2F8" transform="translate(221,429)"/>
<path d="M0 0 C-2.15877191 3.23815787 -2.48949778 3.44580575 -5.9921875 4.421875 C-6.77980469 4.64230469 -7.56742187 4.86273438 -8.37890625 5.08984375 C-9.20261719 5.30769531 -10.02632813 5.52554687 -10.875 5.75 C-11.69097656 5.98332031 -12.50695312 6.21664063 -13.34765625 6.45703125 C-20.02118171 8.27510426 -20.02118171 8.27510426 -24 7 C-20.37951535 5.63353607 -16.75297365 4.28394128 -13.125 2.9375 C-12.09246094 2.54755859 -11.05992187 2.15761719 -9.99609375 1.75585938 C-9.00996094 1.39169922 -8.02382813 1.02753906 -7.0078125 0.65234375 C-5.64100342 0.14175415 -5.64100342 0.14175415 -4.24658203 -0.37915039 C-2 -1 -2 -1 0 0 Z " fill="#22A1BB" transform="translate(464,450)"/>
<path d="M0 0 C0.66 0 1.32 0 2 0 C2 1.32 2 2.64 2 4 C-4.56150434 7.9307125 -9.43321752 8.52136048 -17 8.25 C-18.44826172 8.22292969 -18.44826172 8.22292969 -19.92578125 8.1953125 C-22.28492033 8.14859687 -24.64191075 8.08312137 -27 8 C-27 7.67 -27 7.34 -27 7 C-22.38034912 6.04053405 -18.31870875 6.03897756 -13.625 6.4375 C-11.75714844 6.59025391 -11.75714844 6.59025391 -9.8515625 6.74609375 C-8.44003906 6.87177734 -8.44003906 6.87177734 -7 7 C-7 6.34 -7 5.68 -7 5 C-5.5459375 4.5978125 -5.5459375 4.5978125 -4.0625 4.1875 C-2.5465625 3.5996875 -2.5465625 3.5996875 -1 3 C-0.67 2.01 -0.34 1.02 0 0 Z " fill="#D80D09" transform="translate(551,300)"/>
<path d="M0 0 C0 0.33 0 0.66 0 1 C-1.0725 1.103125 -2.145 1.20625 -3.25 1.3125 C-6.97434091 1.99529583 -8.23101816 2.61294669 -11 5 C-13.09742715 6.17980277 -14.83876996 6.96314742 -17.1875 7.5 C-17.785625 7.665 -18.38375 7.83 -19 8 C-19.33 8.66 -19.66 9.32 -20 10 C-20.66 9.67 -21.32 9.34 -22 9 C-16.0024875 2.03514677 -9.12260159 -0.66346193 0 0 Z " fill="#E2C513" transform="translate(144,269)"/>
<path d="M0 0 C7.92 0 15.84 0 24 0 C24 0.33 24 0.66 24 1 C18.92315405 1.71253978 14.13327063 2 9 2 C7.88625 2.165 6.7725 2.33 5.625 2.5 C1.38218875 3.08521535 -2.72646934 3.08721491 -7 3 C-7 2.67 -7 2.34 -7 2 C-4.69 2 -2.38 2 0 2 C0 1.34 0 0.68 0 0 Z " fill="#F7BF0D" transform="translate(144,268)"/>
<path d="M0 0 C1.093125 0.0825 2.18625 0.165 3.3125 0.25 C3.3125 1.9 3.3125 3.55 3.3125 5.25 C-0.74181692 6.40837626 -2.90562119 6.08691257 -6.6875 4.25 C-4.79150483 0.68106792 -4.16790733 0.28256999 0 0 Z " fill="#62F1FB" transform="translate(287.6875,410.75)"/>
<path d="M0 0 C4.86601891 4.86601891 4.23327996 11.98103251 4.265625 18.42578125 C4 21 4 21 2 23 C0.68 23 -0.64 23 -2 23 C-2 22.34 -2 21.68 -2 21 C-0.35 20.67 1.3 20.34 3 20 C2.7834375 18.89140625 2.566875 17.7828125 2.34375 16.640625 C2.06230682 15.17712047 1.7810675 13.71357673 1.5 12.25 C1.35691406 11.52039063 1.21382813 10.79078125 1.06640625 10.0390625 C0.41111121 6.60656468 0 3.50830509 0 0 Z " fill="#E9AB11" transform="translate(86,276)"/>
<path d="M0 0 C0.99 0 1.98 0 3 0 C3 0.66 3 1.32 3 2 C4.11375 1.690625 4.11375 1.690625 5.25 1.375 C8.39116506 0.94665931 9.31879156 1.48064855 12 3 C12.99 3 13.98 3 15 3 C14.67 3.99 14.34 4.98 14 6 C10.0586853 7.15355552 7.74532161 7.19062997 4.1875 5.25 C1 3 1 3 0 0 Z " fill="#68DCE6" transform="translate(287,496)"/>
<path d="M0 0 C0.99 0.495 0.99 0.495 2 1 C2.309375 1.99 2.61875 2.98 2.9375 4 C3.288125 4.99 3.63875 5.98 4 7 C4.99 7.33 5.98 7.66 7 8 C7.144375 8.763125 7.28875 9.52625 7.4375 10.3125 C7.9632594 13.08172908 7.9632594 13.08172908 9 16 C9.66 16.33 10.32 16.66 11 17 C10.34 17.66 9.68 18.32 9 19 C7.67492391 16.96560073 6.36518622 14.92366893 5.0625 12.875 C4.68931641 12.30523437 4.31613281 11.73546875 3.93164062 11.1484375 C1.58971107 7.43510776 0.41825813 4.36847382 0 0 Z " fill="#94DEE8" transform="translate(209,416)"/>
<path d="M0 0 C0.66 0 1.32 0 2 0 C1.70648038 5.87039235 -1.02412626 9.85599229 -5 14 C-5.99 14.33 -6.98 14.66 -8 15 C-8 14.01 -8 13.02 -8 12 C-7.01 12 -6.02 12 -5 12 C-5 10.35 -5 8.7 -5 7 C-3.35 6.34 -1.7 5.68 0 5 C0 3.35 0 1.7 0 0 Z " fill="#0FC6E0" transform="translate(446,363)"/>
<path d="M0 0 C2.85423192 -0.02718316 5.70820015 -0.04692705 8.5625 -0.0625 C9.36236328 -0.07087891 10.16222656 -0.07925781 10.98632812 -0.08789062 C15.75992121 -0.10737468 20.27794241 0.19725021 25 1 C26.7015625 1.2784375 26.7015625 1.2784375 28.4375 1.5625 C29.283125 1.706875 30.12875 1.85125 31 2 C31 2.33 31 2.66 31 3 C8.89452657 3.25837566 8.89452657 3.25837566 1 2 C0.67 1.34 0.34 0.68 0 0 Z " fill="#F61F08" transform="translate(497,304)"/>
<path d="M0 0 C0.93423645 3.01031744 1.04449911 3.86650268 0 7 C-5.75 5.125 -5.75 5.125 -8 4 C-7.67 3.01 -7.34 2.02 -7 1 C-4.53721199 -0.231394 -2.7204945 -0.07159196 0 0 Z " fill="#52DDE3" transform="translate(313,504)"/>
<path d="M0 0 C1.32 0 2.64 0 4 0 C4.66 1.32 5.32 2.64 6 4 C5.236875 4.7425 4.47375 5.485 3.6875 6.25 C1.5606298 8.4263323 -0.2559956 10.52167796 -2 13 C-2.32613618 8.32538149 -1.70582788 5.83325617 1 2 C0.34 1.67 -0.32 1.34 -1 1 C-0.67 0.67 -0.34 0.34 0 0 Z " fill="#58E2F4" transform="translate(546,369)"/>
<path d="M0 0 C5.98904953 0.1222255 8.48963936 1.84691423 12.6171875 6.11328125 C14.07393173 8.10087296 14.58520569 9.5910023 15 12 C11.36832782 10.65493623 9.71894179 8.4563386 7.37109375 5.46484375 C5.27858294 3.22925528 2.78921658 2.16757903 0 1 C0 0.67 0 0.34 0 0 Z " fill="#E0340F" transform="translate(544,266)"/>
<path d="M0 0 C1.32 0.33 2.64 0.66 4 1 C3.52758009 5.25177923 1.15035929 7.29969203 -2 10 C-2.99 10 -3.98 10 -5 10 C-3.33333333 6.66666667 -1.66666667 3.33333333 0 0 Z " fill="#2BB9D2" transform="translate(549,464)"/>
<path d="M0 0 C0.99 0 1.98 0 3 0 C2.938125 0.94875 2.87625 1.8975 2.8125 2.875 C2.874375 3.90625 2.93625 4.9375 3 6 C3.99 6.66 4.98 7.32 6 8 C6 8.66 6 9.32 6 10 C7.32 10.66 8.64 11.32 10 12 C6 12 6 12 3.859375 10.3203125 C3.16328125 9.59585937 2.4671875 8.87140625 1.75 8.125 C1.04359375 7.40570313 0.3371875 6.68640625 -0.390625 5.9453125 C-2 4 -2 4 -2 2 C-1.34 2 -0.68 2 0 2 C0 1.34 0 0.68 0 0 Z " fill="#95D7DC" transform="translate(237,453)"/>
<path d="M0 0 C0.66 0.33 1.32 0.66 2 1 C1.01 2.485 1.01 2.485 0 4 C-0.99 4 -1.98 4 -3 4 C-3.2475 4.61875 -3.495 5.2375 -3.75 5.875 C-5.23101402 8.39272383 -6.25177691 9.08392564 -9 10 C-9.99 9.67 -10.98 9.34 -12 9 C-11.34 9 -10.68 9 -10 9 C-10 8.34 -10 7.68 -10 7 C-9.34 6.67 -8.68 6.34 -8 6 C-7.67 5.01 -7.34 4.02 -7 3 C-6.01 2.67 -5.02 2.34 -4 2 C-3.34 2.33 -2.68 2.66 -2 3 C-2 2.34 -2 1.68 -2 1 C-1.34 0.67 -0.68 0.34 0 0 Z " fill="#E8FCFD" transform="translate(273,84)"/>
<path d="M0 0 C-1.14239817 1.33627775 -2.28901055 2.66895388 -3.4375 4 C-4.07558594 4.7425 -4.71367188 5.485 -5.37109375 6.25 C-6.17740234 7.11625 -6.17740234 7.11625 -7 8 C-7.33 8 -7.66 8 -8 8 C-7.979375 7.05125 -7.95875 6.1025 -7.9375 5.125 C-7.77448174 2.09333717 -7.77448174 2.09333717 -9 0 C-5.5657338 -0.85856655 -3.38317487 -0.97591583 0 0 Z " fill="#27B0CB" transform="translate(561,460)"/>
<path d="M0 0 C1.484375 1.84765625 1.484375 1.84765625 2.75 4.0625 C3.17796875 4.79597656 3.6059375 5.52945312 4.046875 6.28515625 C4.36140625 6.85105469 4.6759375 7.41695313 5 8 C3 7 1 6 -1 5 C-1 3.68 -1 2.36 -1 1 C-6.28 1 -11.56 1 -17 1 C-17 0.67 -17 0.34 -17 0 C-14.9174133 -0.19561869 -12.83388144 -0.38119313 -10.75 -0.5625 C-9.58984375 -0.66691406 -8.4296875 -0.77132813 -7.234375 -0.87890625 C-2.37618114 -1.06079515 -2.37618114 -1.06079515 0 0 Z " fill="#68CED7" transform="translate(292,410)"/>
<path d="M0 0 C5.6143991 1.56448671 10.86810338 3.16395187 16 6 C15.67 6.66 15.34 7.32 15 8 C12.03 7.505 12.03 7.505 9 7 C9 6.01 9 5.02 9 4 C6.36 3.67 3.72 3.34 1 3 C0.67 2.01 0.34 1.02 0 0 Z " fill="#E2EFEB" transform="translate(475,53)"/>
<path d="M0 0 C0.33 1.32 0.66 2.64 1 4 C-0.98 4.99 -0.98 4.99 -3 6 C-3 10.29 -3 14.58 -3 19 C-5.55573817 16.44426183 -5.35498461 15.30301573 -5.4375 11.75 C-5.39033111 7.76160811 -5.10270448 5.38708292 -2.5 2.3125 C-1.675 1.549375 -0.85 0.78625 0 0 Z " fill="#0FC3CA" transform="translate(124,344)"/>
<path d="M0 0 C1.28134542 2.56269084 0.6917495 3.27116748 0 6 C-0.06688591 7.91561254 -0.08531719 9.83335592 -0.0625 11.75 C-0.05347656 12.73484375 -0.04445312 13.7196875 -0.03515625 14.734375 C-0.02355469 15.48203125 -0.01195312 16.2296875 0 17 C-2.13044088 15.28099347 -2.93135469 14.40312296 -3.3984375 11.66015625 C-3.39070313 10.80292969 -3.38296875 9.94570313 -3.375 9.0625 C-3.38273437 8.20785156 -3.39046875 7.35320312 -3.3984375 6.47265625 C-2.9319174 3.5774874 -1.91238222 2.18052047 0 0 Z " fill="#E1D528" transform="translate(37,274)"/>
<path d="M0 0 C0.99 0.33 1.98 0.66 3 1 C1.54712339 2.33927721 0.08752741 3.67126847 -1.375 5 C-2.18710937 5.7425 -2.99921875 6.485 -3.8359375 7.25 C-6 9 -6 9 -8 9 C-7.67 7.68 -7.34 6.36 -7 5 C-6.34 5 -5.68 5 -5 5 C-4.67 4.01 -4.34 3.02 -4 2 C-2.68 2 -1.36 2 0 2 C0 1.34 0 0.68 0 0 Z " fill="#26A5BD" transform="translate(543,474)"/>
<path d="M0 0 C0.66 0.33 1.32 0.66 2 1 C-1.66666667 4.66666667 -5.33333333 8.33333333 -9 12 C-9.33 11.34 -9.66 10.68 -10 10 C-8.08370615 5.84803 -5.96907488 4.13719416 -2 2 C-1.34 1.34 -0.68 0.68 0 0 Z " fill="#26B5D7" transform="translate(512,413)"/>
<path d="M0 0 C0.33 0.66 0.66 1.32 1 2 C0.09515208 3.15518918 -0.8244206 4.29885406 -1.75 5.4375 C-2.26046875 6.07558594 -2.7709375 6.71367187 -3.296875 7.37109375 C-5.19667629 9.18810554 -6.43586908 9.60423197 -9 10 C-6.68116787 5.49115974 -3.93548431 3.06093224 0 0 Z " fill="#1FB6CE" transform="translate(542,370)"/>
<path d="M0 0 C-0.625 2.375 -0.625 2.375 -2 5 C-5.0625 6.1875 -5.0625 6.1875 -8 7 C-8.33 7.66 -8.66 8.32 -9 9 C-9.66 9 -10.32 9 -11 9 C-9.55936614 4.67809842 -4.74032109 0 0 0 Z " fill="#0CBACE" transform="translate(66,199)"/>
<path d="M0 0 C2.33944736 0.28730055 4.6739143 0.61936779 7 1 C6.67 1.66 6.34 2.32 6 3 C5.01 3 4.02 3 3 3 C3.309375 3.928125 3.309375 3.928125 3.625 4.875 C3.74875 5.57625 3.8725 6.2775 4 7 C3.34 7.66 2.68 8.32 2 9 C1.01 6.36 0.02 3.72 -1 1 C-0.67 0.67 -0.34 0.34 0 0 Z " fill="#6FD7E6" transform="translate(206,409)"/>
<path d="M0 0 C-2.67478244 1.6627026 -4.9995144 2.99983813 -8 4 C-8.33 4.66 -8.66 5.32 -9 6 C-9.99 5.34 -10.98 4.68 -12 4 C-12 3.34 -12 2.68 -12 2 C-10.75579353 1.4654744 -9.50429064 0.94791389 -8.25 0.4375 C-7.55390625 0.14746094 -6.8578125 -0.14257812 -6.140625 -0.44140625 C-3.69987216 -1.07831803 -2.3596345 -0.80248831 0 0 Z " fill="#64C7D2" transform="translate(558,365)"/>
<path d="M0 0 C3.375 -0.1875 3.375 -0.1875 7 0 C7.66 0.99 8.32 1.98 9 3 C6.03 3.66 3.06 4.32 0 5 C-0.33 4.34 -0.66 3.68 -1 3 C-0.67 2.01 -0.34 1.02 0 0 Z " fill="#27DEF1" transform="translate(357,520)"/>
<path d="M0 0 C-0.66386719 0.25394531 -1.32773437 0.50789063 -2.01171875 0.76953125 C-6.57267141 2.54730404 -10.9053441 4.2702294 -15 7 C-15 6.34 -15 5.68 -15 5 C-15.66 4.67 -16.32 4.34 -17 4 C-14.73291675 3.1344953 -12.46224921 2.28240685 -10.1875 1.4375 C-9.54490234 1.19064453 -8.90230469 0.94378906 -8.24023438 0.68945312 C-3.33984375 -1.11328125 -3.33984375 -1.11328125 0 0 Z " fill="#20BDD7" transform="translate(450,457)"/>
<path d="M0 0 C2.31 0.33 4.62 0.66 7 1 C7 1.66 7 2.32 7 3 C7.66 3.33 8.32 3.66 9 4 C4.94568308 5.15837626 2.78187881 4.83691257 -1 3 C-0.67 2.01 -0.34 1.02 0 0 Z " fill="#3CE2F2" transform="translate(339,451)"/>
<path d="M0 0 C3.48330216 0.64505596 6.09432866 1.98217268 9 4 C9 4.66 9 5.32 9 6 C5.26512223 5.5020163 3.18762365 5.12508244 0 3 C0 2.01 0 1.02 0 0 Z " fill="#7BE2E9" transform="translate(311,433)"/>
<path d="M0 0 C0.66 0 1.32 0 2 0 C1.74445946 1.46109063 1.46999628 2.91888096 1.1875 4.375 C1.03667969 5.18710937 0.88585937 5.99921875 0.73046875 6.8359375 C0 9 0 9 -3 11 C-3.75 9.4375 -3.75 9.4375 -4 7 C-2.86915563 4.49713591 -1.47860484 2.32992278 0 0 Z " fill="#2EDAF1" transform="translate(542,372)"/>
<path d="M0 0 C0.33 0.66 0.66 1.32 1 2 C0.11367509 4.2896727 -0.74959336 5.76962589 -2.5625 7.4375 C-4.45263121 9.49199044 -4.6324247 11.27994277 -5 14 C-5.33 14 -5.66 14 -6 14 C-6.29397316 9.00245633 -6.0979156 6.01581652 -3 2 C-2.01 1.34 -1.02 0.68 0 0 Z " fill="#11BDD1" transform="translate(41,343)"/>
<path d="M0 0 C0.66 0.33 1.32 0.66 2 1 C1.3125 3.4375 1.3125 3.4375 0 6 C-2.625 6.8125 -2.625 6.8125 -5 7 C-5 7.66 -5 8.32 -5 9 C-6.65 9 -8.3 9 -10 9 C-9 7 -9 7 -6.6875 5.625 C-4.01605453 4.00970739 -2.11790496 2.27478681 0 0 Z " fill="#C1DCDC" transform="translate(276,78)"/>
<path d="M0 0 C3.79832675 0.54261811 5.69272487 1.95110073 8 5 C8.25 8.25 8.25 8.25 8 11 C7.67 11 7.34 11 7 11 C7 9.35 7 7.7 7 6 C5.35 6 3.7 6 2 6 C1.34 4.02 0.68 2.04 0 0 Z " fill="#81DEE1" transform="translate(295,418)"/>
<path d="M0 0 C0.99 0 1.98 0 3 0 C2.67 3.96 2.34 7.92 2 12 C1.34 12 0.68 12 0 12 C-0.19477739 10.37585622 -0.38059458 8.75063577 -0.5625 7.125 C-0.66691406 6.22007812 -0.77132812 5.31515625 -0.87890625 4.3828125 C-1 2 -1 2 0 0 Z " fill="#68EDF6" transform="translate(592,399)"/>
<path d="M0 0 C0.66 0.66 1.32 1.32 2 2 C1.21718695 3.33855056 0.42348123 4.67073644 -0.375 6 C-0.81585938 6.7425 -1.25671875 7.485 -1.7109375 8.25 C-2.13632813 8.8275 -2.56171875 9.405 -3 10 C-3.66 10 -4.32 10 -5 10 C-5 9.01 -5 8.02 -5 7 C-4.34 7 -3.68 7 -3 7 C-3.33 5.68 -3.66 4.36 -4 3 C-2.68 2.01 -1.36 1.02 0 0 Z " fill="#E8FDFE" transform="translate(217,146)"/>
<path d="M0 0 C1.47177418 3.82661288 0.57016757 6.31010622 -1 10 C-2.5 11.875 -2.5 11.875 -4 13 C-4.66 13 -5.32 13 -6 13 C-4.58707905 8.1725201 -2.57025846 4.2837641 0 0 Z " fill="#ACD8E2" transform="translate(217,138)"/>
<path d="M0 0 C4.50802601 1.25805377 7.4912812 2.90407165 11 6 C6.94393835 5.53199289 3.53411321 5.12046792 0 3 C0 2.01 0 1.02 0 0 Z " fill="#DDECE8" transform="translate(499,64)"/>
<path d="M0 0 C1.65 0 3.3 0 5 0 C5 0.66 5 1.32 5 2 C6.98 2 8.96 2 11 2 C11 2.99 11 3.98 11 5 C7.7 4.34 4.4 3.68 1 3 C0.67 2.01 0.34 1.02 0 0 Z " fill="#F5D80E" transform="translate(129,298)"/>
<path d="M0 0 C0.33 0.66 0.66 1.32 1 2 C-0.89732848 6.11087838 -3.0054207 7.94872955 -7 10 C-5.6062718 5.56541027 -3.39417765 3.12621626 0 0 Z " fill="#AAD5DA" transform="translate(225,128)"/>
<path d="M0 0 C0.66 0 1.32 0 2 0 C0.4169423 4.2742558 -2.50568404 6.26531794 -6 9 C-6 6 -6 6 -4 3 C-3.01 3 -2.02 3 -1 3 C-0.67 2.01 -0.34 1.02 0 0 Z " fill="#E2FBFE" transform="translate(241,113)"/>
<path d="M0 0 C0.66 0.33 1.32 0.66 2 1 C0.87548273 3.9719385 -0.22293791 6.33440687 -2 9 C-2.66 9 -3.32 9 -4 9 C-4.33 9.66 -4.66 10.32 -5 11 C-5.66 10.34 -6.32 9.68 -7 9 C-6.401875 8.443125 -5.80375 7.88625 -5.1875 7.3125 C-3.0136554 5.01443571 -1.53101917 2.75583451 0 0 Z " fill="#B6E2EC" transform="translate(236,113)"/>
<path d="M0 0 C0.99 0 1.98 0 3 0 C3 0.66 3 1.32 3 2 C3.99 2 4.98 2 6 2 C6 2.66 6 3.32 6 4 C7.32 4.33 8.64 4.66 10 5 C10 5.99 10 6.98 10 8 C6.05205855 6.32971708 3.18203882 3.8204435 0 1 C0 0.67 0 0.34 0 0 Z " fill="#91DEE3" transform="translate(256,475)"/>
<path d="M0 0 C-0.99 0.33 -1.98 0.66 -3 1 C-3 1.66 -3 2.32 -3 3 C-7.455 3.495 -7.455 3.495 -12 4 C-11.67 3.01 -11.34 2.02 -11 1 C-7.27569643 0.30710631 -3.78916254 -0.11144596 0 0 Z " fill="#29A6C0" transform="translate(430,460)"/>
<path d="M0 0 C4.36924844 0.48547205 6.07983415 1.78781757 9 5 C9.99 5.66 10.98 6.32 12 7 C5.85412262 6.7589852 5.85412262 6.7589852 3.421875 4.59765625 C2.21155069 3.11953029 1.09779097 1.56352047 0 0 Z " fill="#16DBDE" transform="translate(39,363)"/>
<path d="M0 0 C1.875 0.125 1.875 0.125 4 1 C5.25 4.0625 5.25 4.0625 6 7 C3.5625 6.3125 3.5625 6.3125 1 5 C0.1875 2.375 0.1875 2.375 0 0 Z " fill="#0FCFDD" transform="translate(80,340)"/>
<path d="M0 0 C0.66 0.33 1.32 0.66 2 1 C1.25 2.9375 1.25 2.9375 0 5 C-2.0625 5.625 -2.0625 5.625 -4 6 C-4.33 6.66 -4.66 7.32 -5 8 C-5.66 8 -6.32 8 -7 8 C-5.50902342 4.2047869 -3.24299151 2.38957269 0 0 Z " fill="#0FBDD1" transform="translate(129,196)"/>
<path d="M0 0 C-2.6860286 1.79068573 -4.6626589 2.66055791 -7.6875 3.625 C-8.49574219 3.88539063 -9.30398438 4.14578125 -10.13671875 4.4140625 C-10.75160156 4.60742188 -11.36648438 4.80078125 -12 5 C-12 4.34 -12 3.68 -12 3 C-4.71428571 -0.42857143 -4.71428571 -0.42857143 0 0 Z " fill="#23AFC7" transform="translate(492,510)"/>
<path d="M0 0 C-0.75 1.9375 -0.75 1.9375 -2 4 C-4.125 4.75 -4.125 4.75 -6 5 C-6.33 3.68 -6.66 2.36 -7 1 C-4 0 -4 0 0 0 Z " fill="#6FF4FC" transform="translate(216,411)"/>
<path d="M0 0 C0.66 0.33 1.32 0.66 2 1 C0.625 3 0.625 3 -1 5 C-1.66 5 -2.32 5 -3 5 C-3 5.66 -3 6.32 -3 7 C-4.32 6.67 -5.64 6.34 -7 6 C-4.74259377 3.66475218 -2.7194239 1.81294927 0 0 Z " fill="#D6FAFE" transform="translate(250,102)"/>
<path d="M0 0 C0.66 0.33 1.32 0.66 2 1 C1.43410156 1.26554687 0.86820312 1.53109375 0.28515625 1.8046875 C-0.44832031 2.15789063 -1.18179687 2.51109375 -1.9375 2.875 C-3.03384766 3.39707031 -3.03384766 3.39707031 -4.15234375 3.9296875 C-6.16332459 4.8684977 -6.16332459 4.8684977 -7 7 C-8.32 6.34 -9.64 5.68 -11 5 C-9.21289414 4.13633178 -7.4201535 3.28431406 -5.625 2.4375 C-4.62726563 1.96183594 -3.62953125 1.48617187 -2.6015625 0.99609375 C-1.74304688 0.66738281 -0.88453125 0.33867188 0 0 Z " fill="#CCE7E6" transform="translate(324,53)"/>
<path d="M0 0 C0 0.99 0 1.98 0 3 C-4.455 3.495 -4.455 3.495 -9 4 C-5.73092573 0.73092573 -4.54139841 0 0 0 Z " fill="#1EBCD9" transform="translate(480,513)"/>
<path d="M0 0 C1 3 1 3 0.22265625 4.82421875 C-0.8515625 6.54947917 -1.92578125 8.27473958 -3 10 C-3.33 10 -3.66 10 -4 10 C-3.67 7.69 -3.34 5.38 -3 3 C-2.01 2.67 -1.02 2.34 0 2 C0 1.34 0 0.68 0 0 Z " fill="#13D7E8" transform="translate(448,217)"/>
<path d="M0 0 C3.3 0 6.6 0 10 0 C10 0.66 10 1.32 10 2 C5.94568308 3.15837626 3.78187881 2.83691257 0 1 C0 0.67 0 0.34 0 0 Z " fill="#7BF5F9" transform="translate(281,414)"/>
<path d="M0 0 C-1.485 1.485 -1.485 1.485 -3 3 C-3.66 2.67 -4.32 2.34 -5 2 C-7.62387135 3.39092892 -7.62387135 3.39092892 -10 5 C-9.1875 2.5625 -9.1875 2.5625 -8 0 C-4.71023192 -1.09658936 -3.28696233 -0.79953138 0 0 Z " fill="#8DE4EB" transform="translate(563,365)"/>
<path d="M0 0 C1.125 1.75 1.125 1.75 2 4 C0.9476188 7.47285795 -1.04116579 9.02744386 -4 11 C-3.42655063 8.13275314 -3.1385485 7.1385485 -1 5 C-0.35232207 2.42938689 -0.35232207 2.42938689 0 0 Z " fill="#E8260E" transform="translate(557,292)"/>
<path d="M0 0 C-1.5625 1.5625 -1.5625 1.5625 -4 3 C-7.75 2.6875 -7.75 2.6875 -11 2 C-6.98764085 -0.6749061 -4.6342454 -1.48957888 0 0 Z " fill="#D1E7E8" transform="translate(357,45)"/>
<path d="M0 0 C1.1446875 0.495 1.1446875 0.495 2.3125 1 C4.99069135 2.17436686 4.99069135 2.17436686 8 2 C7.67 2.99 7.34 3.98 7 5 C4.9375 5.6875 4.9375 5.6875 3 6 C0 2.25 0 2.25 0 0 Z " fill="#64F5FB" transform="translate(294,497)"/>
<path d="M0 0 C-0.25 1.875 -0.25 1.875 -1 4 C-3.0625 5.25 -3.0625 5.25 -5 6 C-5 4.35 -5 2.7 -5 1 C-2 0 -2 0 0 0 Z " fill="#17C6DE" transform="translate(525,486)"/>
<path d="M0 0 C0.33 0 0.66 0 1 0 C1.36666667 5.5 1.36666667 5.5 -0.375 7.875 C-2 9 -2 9 -4 9 C-4 8.01 -4 7.02 -4 6 C-3.01 6 -2.02 6 -1 6 C-1.020625 5.195625 -1.04125 4.39125 -1.0625 3.5625 C-1 1 -1 1 0 0 Z " fill="#0ACDE8" transform="translate(442,369)"/>
<path d="M0 0 C0.33 0 0.66 0 1 0 C1.1953125 6.0546875 1.1953125 6.0546875 1 8 C0.34 8.66 -0.32 9.32 -1 10 C-2.32 10 -3.64 10 -5 10 C-5 9.34 -5 8.68 -5 8 C-3.35 7.67 -1.7 7.34 0 7 C0 4.69 0 2.38 0 0 Z " fill="#F5C61B" transform="translate(89,289)"/>
<path d="M0 0 C0 0.66 0 1.32 0 2 C-2.70879335 3.35439668 -5.00933268 3.06501451 -8 3 C-5.53387212 -0.1151089 -3.89156016 -0.31553191 0 0 Z " fill="#64EFFC" transform="translate(313,504)"/>
<path d="M0 0 C0.99 0 1.98 0 3 0 C3 1.65 3 3.3 3 5 C1.35 4.67 -0.3 4.34 -2 4 C-2 3.34 -2 2.68 -2 2 C-1.34 2 -0.68 2 0 2 C0 1.34 0 0.68 0 0 Z " fill="#AAEDF1" transform="translate(237,453)"/>
<path d="M0 0 C2.0625 0.4375 2.0625 0.4375 4 1 C2.35 2.65 0.7 4.3 -1 6 C-1.042721 4.33388095 -1.04063832 2.66617115 -1 1 C-0.67 0.67 -0.34 0.34 0 0 Z " fill="#3FB7C7" transform="translate(572,441)"/>
<path d="M0 0 C2 0 2 0 4.6875 2.25 C5.450625 3.1575 6.21375 4.065 7 5 C6.64453125 7.171875 6.64453125 7.171875 6 9 C4.99712471 7.68969568 3.99777175 6.37669473 3 5.0625 C2.443125 4.33160156 1.88625 3.60070312 1.3125 2.84765625 C0 1 0 1 0 0 Z " fill="#92D9DF" transform="translate(221,438)"/>
<path d="M0 0 C0.66 0 1.32 0 2 0 C1.50168276 3.68754757 0.89932357 5.60490662 -2 8 C-2.66 6.68 -3.32 5.36 -4 4 C-2.68 4 -1.36 4 0 4 C0 2.68 0 1.36 0 0 Z " fill="#56D2E3" transform="translate(591,411)"/>
<path d="M0 0 C2.0625 0.4375 2.0625 0.4375 4 1 C2.35 2.65 0.7 4.3 -1 6 C-1.042721 4.33388095 -1.04063832 2.66617115 -1 1 C-0.67 0.67 -0.34 0.34 0 0 Z " fill="#2EA4BB" transform="translate(557,459)"/>
<path d="M0 0 C0.33 0.66 0.66 1.32 1 2 C-0.32 3.65 -1.64 5.3 -3 7 C-3.99 6.67 -4.98 6.34 -6 6 C-4.02 4.02 -2.04 2.04 0 0 Z " fill="#2C9FBD" transform="translate(502,421)"/>
<path d="M0 0 C0.66 0 1.32 0 2 0 C2 1.32 2 2.64 2 4 C0.02 4.33 -1.96 4.66 -4 5 C-3.67 4.34 -3.34 3.68 -3 3 C-2.34 3 -1.68 3 -1 3 C-0.67 2.01 -0.34 1.02 0 0 Z " fill="#E71006" transform="translate(551,300)"/>
<path d="M0 0 C3.3 0.99 6.6 1.98 10 3 C5.59232396 4.10191901 4.1077065 3.58706842 0 2 C0 1.34 0 0.68 0 0 Z " fill="#D6EAE6" transform="translate(475,53)"/>
</svg>
