<?xml version="1.0" standalone="no"?>
<!DOCTYPE svg PUBLIC "-//W3C//DTD SVG 20010904//EN"
 "http://www.w3.org/TR/2001/REC-SVG-20010904/DTD/svg10.dtd">
<svg version="1.0" xmlns="http://www.w3.org/2000/svg"
 width="200.000000pt" height="200.000000pt" viewBox="0 0 200.000000 200.000000"
 preserveAspectRatio="xMidYMid meet">

<g transform="translate(0.000000,200.000000) scale(0.100000,-0.100000)"
fill="#000000" stroke="none">
<path d="M1038 1799 c-34 -19 -17 -27 66 -30 73 -4 88 -7 111 -29 52 -47 55
-68 55 -357 1 -255 2 -267 18 -247 9 11 48 136 86 278 l68 258 -19 27 c-17 22
-46 33 -174 68 -164 45 -184 48 -211 32z"/>
<path d="M788 1688 c-29 -29 -12 -33 56 -14 30 9 67 16 83 16 40 0 91 -34 108
-72 12 -27 54 -178 135 -488 11 -41 13 -43 26 -25 11 15 14 73 14 292 0 267 0
273 -22 293 -20 19 -34 20 -200 20 -170 0 -179 -1 -200 -22z"/>
<path d="M750 1591 c-168 -48 -166 -47 -179 -79 -9 -23 0 -67 58 -287 48 -177
75 -263 87 -272 28 -20 69 -15 224 27 149 40 180 58 180 102 0 11 -24 110 -54
221 -30 111 -60 221 -66 245 -14 56 -41 82 -82 81 -18 0 -94 -18 -168 -38z
m-54 -114 c2 -7 6 -27 7 -43 2 -25 -2 -29 -22 -29 -19 0 -27 7 -33 30 -4 17
-6 36 -3 43 6 16 44 16 51 -1z m178 -104 c28 -26 54 -52 58 -59 4 -6 -3 -44
-15 -85 -16 -53 -28 -75 -41 -77 -21 -5 -126 94 -126 118 0 18 32 120 43 138
13 20 28 14 81 -35z m156 -224 c15 -28 9 -63 -13 -67 -19 -4 -49 52 -40 75 8
20 41 15 53 -8z"/>
<path d="M816 1308 c-5 -24 -1 -37 16 -55 16 -17 24 -20 30 -11 16 26 8 65
-16 81 -23 16 -24 15 -30 -15z"/>
<path d="M1470 765 c0 -8 9 -15 20 -15 11 0 20 7 20 15 0 8 -9 15 -20 15 -11
0 -20 -7 -20 -15z"/>
<path d="M1870 765 c0 -8 5 -15 10 -15 6 0 10 -38 10 -95 0 -57 -4 -95 -10
-95 -5 0 -10 -7 -10 -15 0 -11 11 -15 40 -15 29 0 40 4 40 15 0 8 -4 15 -10
15 -6 0 -10 43 -10 110 l0 110 -30 0 c-20 0 -30 -5 -30 -15z"/>
<path d="M101 734 c-24 -30 -29 -116 -10 -157 19 -41 86 -60 130 -37 14 8 19
21 19 55 0 43 -1 45 -30 45 -33 0 -39 -14 -14 -28 24 -13 13 -46 -16 -50 -45
-5 -65 20 -65 81 0 31 6 61 14 70 19 24 68 22 81 -3 15 -27 30 -25 30 5 0 30
-26 45 -79 45 -31 0 -44 -6 -60 -26z"/>
<path d="M860 751 c0 -6 5 -13 10 -16 6 -3 10 -40 10 -81 0 -66 3 -78 25 -99
30 -31 82 -33 113 -5 19 18 22 31 22 100 0 43 5 82 10 85 22 13 8 25 -30 25
-40 0 -53 -13 -25 -24 16 -6 21 -97 9 -144 -8 -26 -48 -39 -69 -22 -18 15 -22
170 -5 170 6 0 10 5 10 10 0 6 -18 10 -40 10 -22 0 -40 -4 -40 -9z"/>
<path d="M1260 750 c0 -5 5 -10 10 -10 6 0 10 -37 10 -90 0 -53 -4 -90 -10
-90 -5 0 -10 -7 -10 -15 0 -11 11 -15 40 -15 29 0 40 4 40 15 0 8 -4 15 -10
15 -5 0 -10 14 -10 30 0 28 3 30 35 30 44 0 75 29 75 70 0 50 -30 70 -105 70
-37 0 -65 -4 -65 -10z m130 -40 c16 -30 -4 -60 -40 -60 -28 0 -30 2 -30 40 0
38 2 40 30 40 19 0 33 -7 40 -20z"/>
<path d="M293 693 c-16 -6 -17 -43 -2 -43 7 0 17 7 23 16 14 19 46 8 46 -16 0
-12 -10 -20 -32 -24 -38 -7 -58 -23 -58 -45 0 -34 18 -45 78 -47 l60 -2 -6 66
c-6 89 -14 102 -60 101 -20 0 -43 -3 -49 -6z m65 -105 c-2 -13 -11 -24 -21
-26 -22 -4 -35 27 -16 39 25 16 41 10 37 -13z"/>
<path d="M430 690 c0 -5 5 -12 10 -15 6 -3 10 -31 10 -61 0 -30 -4 -54 -10
-54 -5 0 -10 -7 -10 -15 0 -10 10 -15 34 -15 l33 0 -5 71 c-5 70 -5 71 19 67
21 -3 24 -9 27 -55 2 -32 -1 -53 -7 -53 -6 0 -11 -7 -11 -15 0 -10 10 -15 34
-15 l33 0 -5 71 c-5 70 -5 71 19 67 21 -3 24 -9 27 -55 2 -32 -1 -53 -7 -53
-6 0 -11 -7 -11 -15 0 -11 11 -15 40 -15 29 0 40 4 40 15 0 8 -4 15 -10 15 -5
0 -10 20 -10 44 0 69 -14 96 -49 96 -16 0 -33 -5 -36 -10 -4 -7 -11 -8 -18 -1
-15 11 -137 12 -137 1z"/>
<path d="M727 682 c-25 -27 -23 -106 3 -132 29 -29 100 -25 100 5 0 10 -10 12
-34 8 -28 -4 -36 -1 -45 16 -7 11 -8 22 -4 23 4 0 13 2 18 3 6 2 25 3 43 4 32
1 33 2 27 34 -4 17 -12 38 -17 45 -16 18 -72 15 -91 -6z m71 -35 c3 -12 -3
-17 -22 -17 -25 0 -35 18 -19 34 12 12 38 2 41 -17z"/>
<path d="M1080 689 c0 -5 5 -9 10 -9 6 0 10 -38 10 -95 0 -57 -4 -95 -10 -95
-5 0 -10 -4 -10 -10 0 -5 18 -10 40 -10 22 0 40 5 40 10 0 6 -4 10 -10 10 -5
0 -10 12 -10 26 0 21 4 24 20 19 33 -10 58 4 70 41 12 34 6 89 -12 111 -11 14
-138 16 -138 2z m114 -35 c18 -48 -5 -103 -39 -90 -15 6 -22 86 -8 99 12 13
41 7 47 -9z"/>
<path d="M1450 691 c0 -6 5 -13 10 -16 6 -3 10 -31 10 -61 0 -30 -4 -54 -10
-54 -5 0 -10 -7 -10 -15 0 -11 11 -15 40 -15 29 0 40 4 40 15 0 8 -4 15 -10
15 -6 0 -10 30 -10 70 l0 70 -30 0 c-16 0 -30 -4 -30 -9z"/>
<path d="M1550 694 c0 -3 11 -21 25 -41 l24 -36 -20 -29 c-11 -15 -25 -28 -30
-28 -5 0 -9 -7 -9 -15 0 -11 11 -15 36 -15 29 0 34 3 30 18 -7 22 8 47 23 38
6 -4 11 -18 11 -32 0 -20 5 -24 30 -24 37 0 38 11 5 46 -14 15 -25 33 -25 40
0 7 11 26 25 42 14 17 25 33 25 36 0 3 -16 6 -36 6 -28 0 -35 -3 -30 -15 3 -8
3 -22 0 -30 -9 -23 -36 3 -29 26 5 16 1 19 -24 19 -17 0 -31 -2 -31 -6z"/>
<path d="M1736 678 c-23 -33 -21 -103 4 -128 29 -29 100 -25 100 5 0 8 -13 12
-37 11 -32 -1 -38 2 -41 22 -3 20 1 22 44 22 l47 0 -7 32 c-9 44 -23 58 -62
58 -23 0 -38 -7 -48 -22z m72 -31 c3 -12 -3 -17 -22 -17 -25 0 -35 18 -19 34
12 12 38 2 41 -17z"/>
</g>
</svg>
